<?xml version="1.0" standalone="no"?>
<!DOCTYPE svg PUBLIC "-//W3C//DTD SVG 1.1//EN" "http://www.w3.org/Graphics/SVG/1.1/DTD/svg11.dtd" >
<svg>
<metadata>
Created by FontForge 20090622 at Fri Nov 13 02:01:26 2015
 By deploy user
Copyright (c) 1992 Monotype Corporation plc. All rights reserved. Portions &#194;&#169; 1992 Microsoft Corp.
</metadata>
<defs>
<font id="Braggadocio" horiz-adv-x="2048" >
  <font-face 
    font-family="Braggadocio"
    font-weight="400"
    font-stretch="normal"
    units-per-em="2048"
    panose-1="4 3 11 7 13 11 2 2 4 3"
    ascent="1638"
    descent="-410"
    x-height="1157"
    cap-height="1577"
    bbox="-440 -455 2956 2021"
    underline-thickness="102"
    underline-position="-154"
    unicode-range="U+0020-U+F002"
  />
<missing-glyph horiz-adv-x="1024" 
d="M82 1365h860v-1365h-860v1365zM123 1324v-1283h778v1283h-778z" />
    <glyph glyph-name=".notdef" horiz-adv-x="1024" 
d="M82 1365h860v-1365h-860v1365zM123 1324v-1283h778v1283h-778z" />
    <glyph glyph-name="02c7" horiz-adv-x="0" 
 />
    <glyph glyph-name="space" unicode=" " horiz-adv-x="1024" 
 />
    <glyph glyph-name="exclam" unicode="!" horiz-adv-x="555" 
d="M299 487q105 0 179 -71q73 -70 73 -174q0 -99 -73 -169q-74 -71 -179 -71q-64 0 -120 33q-57 33 -90 89q-34 55 -34 120q0 102 72 172q73 71 172 71zM363 566h-135l-113 443q-29 119 -48 215q-21 101 -21 131q0 96 71 164q70 67 173 67q68 0 123 -31q56 -31 87 -87
q31 -55 31 -126q0 -47 -24 -143l-2 -12l-2 -13z" />
    <glyph glyph-name="quotedbl" unicode="&#x22;" horiz-adv-x="1003" 
d="M867 1045h-241l-60 285v247h356v-247zM381 1045h-241l-60 285v247h356v-247z" />
    <glyph glyph-name="numbersign" unicode="#" horiz-adv-x="1237" 
d="M536 893l-55 -273h220l55 273h-220zM101 0l76 371h-138v249h187l55 273h-242v249h292l75 374h255l-76 -374h220l75 374h257l-75 -374h138v-249h-188l-55 -273h243v-249h-293l-76 -371h-253l73 371h-220l-75 -371h-255z" />
    <glyph glyph-name="dollar" unicode="$" horiz-adv-x="1749" 
d="M741 1432v165h324v-436l471 -389q195 -160 195 -356q0 -128 -63 -221q-65 -93 -187 -144q-63 -26 -125 -37q-65 -11 -166 -14l-125 96v-252h-328v510l-327 258q-281 222 -281 484q0 91 27 166q25 73 79 130q53 55 132 89q55 24 107 35q53 10 147 14zM125 2v662l477 -377
v-285h-477zM1202 1227v268h440v-635z" />
    <glyph glyph-name="percent" unicode="%" horiz-adv-x="2367" 
d="M575 -16l1082 1607h145l-1081 -1607h-146zM1843 -16v798h41q87 0 165 -30q78 -32 135 -86q59 -55 90 -129q32 -75 32 -158t-30 -154q-32 -72 -89 -126q-61 -58 -134 -85q-76 -30 -161 -30h-49zM1753 780v-796h-55q-104 0 -197 54q-92 52 -148 143q-55 89 -55 196
q0 114 55 206q57 94 152 145q95 52 213 52h35zM627 795v798h47q87 0 162 -31q78 -33 131 -86q56 -56 86 -129t30 -159q0 -105 -54 -197q-55 -90 -148 -143q-94 -53 -205 -53h-49zM541 1593v-798h-31q-90 0 -165 31q-77 30 -135 85q-58 54 -91 130q-33 77 -33 159
q0 106 54 197t146 144q91 52 201 52h54z" />
    <glyph glyph-name="ampersand" unicode="&#x26;" horiz-adv-x="2111" 
d="M1866 469l-348 451h612zM1458 993l-446 584h313q92 0 168 -40q77 -41 119 -107q43 -67 43 -148q0 -173 -197 -289zM403 823l596 -776q-30 -14 -84 -29q-88 -18 -239 -18q-136 0 -222 12q-86 11 -146 39q-61 29 -109 76q-58 59 -90 135q-33 77 -33 154q0 194 145 317
q45 37 78 53q41 20 104 37zM860 1577l1233 -1577h-911l-271 325l-83.5 105l-61.5 78.5l-83 108.5q-86 112 -176 244q-78 115 -91 153q-10 39 -10 82q0 116 63 225q62 108 169 179q103 69 222 77z" />
    <glyph glyph-name="quotesingle" unicode="'" horiz-adv-x="533" 
d="M390 1045h-241l-60 285v247h356v-247z" />
    <glyph glyph-name="parenleft" unicode="(" horiz-adv-x="938" 
d="M944 -221v-92q-136 25 -204 48q-72 24 -154 68q-79 45 -149 103q-66 53 -126 121q-60 73 -100 141.5t-70 147.5q-61 158 -61 319q0 155 48 299q48 142 140 266q90 120 217 211q174 123 371 168q45 9 94 16v-96q-48 -16 -79 -40q-28 -24 -48 -68q-47 -111 -47 -349v-929
q0 -145 43 -230q44 -86 125 -104z" />
    <glyph glyph-name="parenright" unicode=")" horiz-adv-x="938" 
d="M18 1501v94q114 -19 179 -40q71 -24 153 -64q69 -34 132.5 -80t119.5 -102q139 -136 213 -313q36 -86 55 -177t19 -186q0 -90 -15.5 -173t-46.5 -160q-62 -159 -180 -286q-120 -129 -279 -211q-163 -83 -356 -116v98q66 18 103 67q39 50 55 140q16 89 16 239v926
q0 149 -41 234q-41 83 -127 110z" />
    <glyph glyph-name="asterisk" unicode="*" horiz-adv-x="854" 
d="M90 1384l209 207l150 -147l149 149l215 -211l-149 -151l151 -152l-217 -209l-147 150l-148 -146l-213 209l150 150z" />
    <glyph glyph-name="plus" unicode="+" horiz-adv-x="1280" 
d="M785 255h-291v382h-384v293h384v383h291v-383h384v-293h-384v-382z" />
    <glyph glyph-name="comma" unicode="," horiz-adv-x="598" 
d="M295 -229v229q-69 6 -121 38q-51 31 -80 85q-28 52 -28 121q0 65 33 120q33 56 91 87q59 32 125 32q69 0 124 -33q58 -36 88 -95q32 -62 32 -132q0 -113 -40 -212q-40 -100 -113 -171q-40 -39 -111 -69z" />
    <glyph glyph-name="hyphen" unicode="-" horiz-adv-x="1130" 
d="M45 834h1085q-56 -63 -82 -126t-26 -135q0 -63 26 -121q26 -60 80 -118h-1083q55 58 79 118q23 60 23 140q0 130 -102 242z" />
    <glyph glyph-name="period" unicode="." horiz-adv-x="598" 
d="M307 489h6q106 -3 177 -73q71 -71 71 -170q0 -105 -71 -174q-71 -70 -177 -70q-67 0 -123 33q-57 33 -90 90q-34 55 -34 121q0 67 32 123q32 57 89 88q56 32 120 32z" />
    <glyph glyph-name="slash" unicode="/" horiz-adv-x="748" 
d="M41 2l360 1567h336l-368 -1567h-328z" />
    <glyph glyph-name="zero" unicode="0" 
d="M1116 -8v1595h82q171 0 322 -60q154 -63 265 -169q112 -108 175 -253t63 -312q0 -174 -61 -320q-60 -145 -178 -256q-114 -108 -270 -167q-153 -58 -340 -58h-58zM981 1587v-1595h-98q-167 0 -311 61q-147 62 -256 171q-111 109 -171 254q-61 143 -61 308q0 174 61 321
q62 149 173 255q112 109 264 167t331 58h68z" />
    <glyph glyph-name="one" unicode="1" horiz-adv-x="1153" 
d="M143 1577l2 2h910v-1577h-912v1575z" />
    <glyph glyph-name="two" unicode="2" horiz-adv-x="1855" 
d="M1262 2l557 705v-705h-557zM1081 2h-1040l545 684l10.5 12.5l12.5 15.5l11 13t11 14q3 5 12.5 16.5t14.5 18.5q12 15 14 17q97 119 149 195q46 67 63 124t17 129q0 102 -44 187q-45 84 -140 155q98 6 235 6q180 0 275 -13q100 -14 170 -46q190 -79 305 -254
q45 -67 76 -155q30 -91 34 -163q1 -3 1 -9t1 -14q1 -9 1 -24v-14zM424 1577q94 0 173 -46t125 -125t46 -173t-46 -171q-47 -80 -125 -126q-80 -47 -173 -47q-94 0 -173 47q-78 46 -125 126q-46 79 -46 171q0 93 46 172q47 80 125 126q77 46 173 46z" />
    <glyph glyph-name="three" unicode="3" horiz-adv-x="2068" 
d="M811 1581l143 4q81 3 160 5.5t132 3.5t124 1q191 0 308 -32q115 -31 190 -111q36 -38 61 -83q26 -46 39 -102q14 -58 14 -110q0 -109 -54 -202q-56 -94 -159 -158q114 -72 168 -159t54 -204q0 -195 -126 -314q-127 -118 -337 -118h-760v23q65 12 101 24q33 10 75 35
q62 32 109 86q86 104 86 236q0 71 -25 136q-26 65 -73 117q-50 51 -115 84q-72 33 -176 45v25q114 23 180 61q61 34 106 87q84 98 84 235q0 158 -112 264q-43 42 -81 65q-46 27 -116 56zM418 707q72 0 135 -26q62 -27 108 -73t73 -108q26 -63 26 -135q0 -69 -26 -132
q-25 -61 -73 -109q-47 -48 -110 -74q-64 -27 -133 -27q-68 0 -131 27q-63 26 -110 74q-48 47 -74 110q-27 63 -27 131q0 69 27 133q26 63 74 110q48 48 109 73q63 26 132 26zM426 1571q72 0 135 -26q62 -27 108 -73t73 -108q26 -63 26 -135q0 -69 -26 -132q-25 -61 -73 -109
q-47 -48 -110 -74q-64 -27 -133 -27q-91 0 -170 46q-80 47 -126 124t-46 172q0 93 46 172q46 78 126 125q80 45 170 45z" />
    <glyph glyph-name="four" unicode="4" horiz-adv-x="2154" 
d="M907 1280l344 299h578v-565h305v-750h-301v-260h-926v1276zM41 530l731 633v-897h-731v264z" />
    <glyph glyph-name="five" unicode="5" horiz-adv-x="2068" 
d="M117 782l217 797h1534l-10 -709l-609 656l-241 -684h579q97 0 180 -31q82 -31 143 -88q58 -55 93 -136q33 -79 33 -171q0 -121 -55 -215q-56 -96 -155 -148q-101 -53 -227 -53h-782v16q74 23 106 39q32 15 74 51q66 54 103 127q37 71 37 148q0 118 -54 206
q-55 89 -156 138q-100 49 -235 51zM416 705q94 0 173 -46t125 -125t46 -174q0 -93 -46 -172q-47 -80 -125 -126q-79 -46 -173 -46q-96 0 -173 46q-78 46 -125 126q-46 79 -46 172q0 94 46 173q47 80 125 126q77 46 173 46z" />
    <glyph glyph-name="six" unicode="6" horiz-adv-x="1921" 
d="M1133 2v850h272q138 0 249 -53q108 -52 168 -150q60 -97 60 -225q0 -123 -56 -218q-55 -96 -156 -150q-100 -54 -230 -54h-307zM999 1241v-1241h-137q-161 0 -305 60q-143 58 -252 167q-108 106 -168 251q-61 141 -61 302q0 222 105 408q106 186 286 293q180 108 397 108
q73 0 139 -13t113 -34q-69 -59 -93 -118q-24 -61 -24 -183zM1440 1575q83 0 153 -40t111 -112q41 -71 41 -153q0 -129 -88 -217q-88 -90 -217 -90q-126 0 -215 90q-90 89 -90 217q0 82 41 153q40 70 112 111q71 41 152 41z" />
    <glyph glyph-name="seven" unicode="7" 
d="M178 2l858 1575h1020l-852 -1575h-1026zM150 233v1346l2 -2h737z" />
    <glyph glyph-name="eight" unicode="8" horiz-adv-x="2111" 
d="M1143 2v1591h440q137 0 247 -56q108 -55 170 -155q60 -100 60 -225q0 -95 -48 -178t-136 -135q-36 -22 -65 -32q-32 -12 -80 -21v-5q85 -15 139 -47q63 -35 102 -86q45 -51 70 -115q26 -67 26 -128q0 -114 -52 -206q-52 -93 -145 -148q-93 -54 -202 -54h-526zM1010 1593
v-1591h-512q-110 0 -203 54t-147 147t-54 203q0 78 37 153q36 76 102 133q38 35 73 54q33 19 106 42v5q-66 18 -96 32q-36 16 -78 49q-140 114 -140 302q0 124 64 218q63 94 179 147q114 52 263 52h406z" />
    <glyph glyph-name="nine" unicode="9" horiz-adv-x="1985" 
d="M1022 293v1304h55q132 0 249 -27q121 -30 217 -83q98 -54 177 -133q56 -56 99 -121q41 -61 74 -138q29 -71 46 -145q15 -72 15 -151q0 -119 -35 -233q-36 -113 -101 -211q-67 -98 -157 -174q-92 -77 -199 -120q-153 -61 -327 -61q-81 0 -129 12q-35 6 -95 33
q59 62 86 122q25 56 25 126zM543 696q93 0 172 -46q80 -47 126 -124q46 -79 46 -174q0 -93 -46 -170q-46 -79 -125 -125q-80 -47 -173 -47q-95 0 -172 46t-124 126q-46 79 -46 170q0 94 46 173t125 125q77 46 171 46zM887 1597v-849l-295 -9q-255 0 -389 114
q-133 114 -133 333q0 117 68 214t184 146q122 51 329 51h236z" />
    <glyph glyph-name="colon" unicode=":" horiz-adv-x="598" 
d="M309 1028q66 0 123 -33q56 -33 89 -89q32 -58 32 -122q0 -66 -33 -122t-89 -89q-56 -34 -122 -34q-67 0 -123 34q-57 33 -90 89t-33 122q0 101 73 173q73 71 173 71zM309 489q100 0 174 -71q72 -72 72 -172q0 -67 -33 -123q-35 -56 -90 -89q-58 -33 -123 -32
q-101 0 -172 72q-71 73 -71 172q0 101 71 172t172 71z" />
    <glyph glyph-name="semicolon" unicode=";" horiz-adv-x="598" 
d="M313 1028q101 0 171 -70q71 -71 71 -172q0 -64 -32 -120q-34 -57 -88 -89q-55 -34 -122 -34q-100 0 -171 71q-70 70 -70 172q0 65 32 121q31 54 88 88q56 33 121 33zM299 -229v231q-66 4 -119 37q-52 32 -81 84q-29 53 -29 121q0 100 72 170q71 69 175 69q69 0 126 -33
q58 -36 88 -95q32 -62 32 -132q0 -107 -39 -208q-40 -100 -112 -173q-42 -41 -113 -71z" />
    <glyph glyph-name="less" unicode="&#x3c;" horiz-adv-x="1280" 
d="M1175 514v-317l-1071 454v269l1071 454v-320l-696 -267z" />
    <glyph glyph-name="equal" unicode="=" horiz-adv-x="1280" 
d="M1170 406h-1059v292h1059v-292zM1170 873h-1059v292h1059v-292z" />
    <glyph glyph-name="greater" unicode="&#x3e;" horiz-adv-x="1280" 
d="M1175 651l-1071 -455v319l697 271l-697 270v317l1071 -454v-268z" />
    <glyph glyph-name="question" unicode="?" horiz-adv-x="1194" 
d="M719 483q102 0 172 -69q70 -70 70 -170t-71 -171q-73 -71 -171 -71q-99 0 -170 71q-72 71 -72 169q0 66 33 121q31 54 88 88q56 32 121 32zM674 559v676q0 110 -29 168q-21 43 -42 70q-22 26 -73 71q59 39 158 39q57 0 120 -19t124 -54q59 -36 104 -83q48 -46 83 -106
q34 -60 50 -126q17 -70 17 -138q0 -152 -76 -264q-38 -58 -97 -111q-60 -53 -120 -82q-54 -26 -158 -37q-14 0 -61 -4zM303 1513q54 0 99 -19q47 -20 81 -55q34 -36 54 -80q18 -45 18 -97q-1 -105 -74 -179q-73 -73 -178 -73t-178 73q-74 74 -74 179t75 178q73 73 177 73z
" />
    <glyph glyph-name="at" unicode="@" horiz-adv-x="1749" 
d="M589 535q0 -106 46 -167q47 -62 120 -62q130 0 203 180q73 177 73 350q0 85 -41 149q-40 63 -123 63q-123 0 -200 -155q-78 -154 -78 -358zM1088 1077l21 112h230l-138 -754q-9 -49 -9 -63q0 -43 40 -43q45 0 126 57q80 57 140 182t60 275q0 168 -84 306
q-85 138 -227 199q-144 62 -314 62q-218 0 -390 -100q-173 -101 -263 -285t-90 -399q0 -313 205 -509q204 -198 553 -198q171 0 331 56t262 170h209q-120 -191 -328 -291q-210 -101 -472 -101q-424 0 -675 244q-252 243 -252 638q0 394 248 669q248 273 669 273
q358 0 572 -212q212 -212 212 -531q0 -292 -186 -492t-400 -200q-149 0 -173 116q-115 -117 -261 -117q-154 0 -252 119t-98 305q0 232 133 443q134 210 347 210q164 0 254 -141z" />
    <glyph glyph-name="A" unicode="A" horiz-adv-x="1855" 
d="M438 965l262 624h476l686 -1589h-1022l-285 684h-145l282 -684h-665l338 799h141z" />
    <glyph glyph-name="B" unicode="B" horiz-adv-x="2154" 
d="M1176 0v1577h446q136 0 215 -25t145 -88q60 -57 91 -131q32 -78 32 -159q0 -181 -129 -291q-37 -33 -72 -51q-31 -17 -114 -44v-4q71 -24 112 -45q37 -19 74 -53q135 -120 135 -303q0 -79 -31 -147q-31 -70 -86 -123q-57 -56 -125 -83q-70 -30 -151 -30h-542zM145 0v1577
h895v-1577h-895z" />
    <glyph glyph-name="C" unicode="C" horiz-adv-x="1749" 
d="M1683 696v-696h-809q-214 0 -397 108q-183 106 -293 291q-110 184 -110 396q0 168 64 312q62 144 179 253q116 109 270 167q153 58 333 58h761v-690l-698 664v-1526z" />
    <glyph glyph-name="D" unicode="D" horiz-adv-x="2134" 
d="M1190 0v1577h113q212 0 398 -108q187 -108 296 -291q110 -184 110 -390q0 -156 -60 -300q-62 -146 -173 -255q-110 -107 -259 -170q-150 -63 -292 -63h-133zM152 0v1577h905v-1577h-905z" />
    <glyph glyph-name="E" unicode="E" horiz-adv-x="1878" 
d="M139 0v1577h1655v-594l-158 119v-588l162 131v-645h-1659zM1632 510l-585 268v-745zM1630 1108l-579 434v-745z" />
    <glyph glyph-name="F" unicode="F" horiz-adv-x="1835" 
d="M141 0v1577h1637v-602l-129 94v-582l-600 289v-776h-908zM1624 1090l-577 438v-731z" />
    <glyph glyph-name="G" unicode="G" horiz-adv-x="1921" 
d="M1124 690h-129v-696q-54 -2 -92 -2q-228 0 -418 106q-191 107 -300 292q-109 184 -109 409q0 115 44 238q43 121 125 227q79 103 187 176q208 137 529 137h770v-664l-738 598v-698h858v-825l-235 168q-65 -46 -111 -70q-43 -22 -131 -51q-111 -40 -207 -43h-43v698z" />
    <glyph glyph-name="H" unicode="H" horiz-adv-x="2154" 
d="M141 0v1577h891v-715h131v715h893v-1577h-895v731h-131v-731h-889z" />
    <glyph glyph-name="I" unicode="I" horiz-adv-x="1130" 
d="M139 1577h899v-1577h-899v1577z" />
    <glyph glyph-name="J" unicode="J" horiz-adv-x="1473" 
d="M481 422v1155h891v-1102q0 -130 -70 -240q-71 -111 -191 -176q-122 -65 -263 -65h-807l-14 51q99 2 148 10q55 9 108 31q65 29 104 68q94 93 94 268z" />
    <glyph glyph-name="K" unicode="K" horiz-adv-x="2367" 
d="M121 0v1577h893v-895l553 471l811 -1153h-953l-411 649h-4v-649h-889zM1567 1153l-293 424h768l2 -18z" />
    <glyph glyph-name="L" unicode="L" horiz-adv-x="1942" 
d="M143 0v1577h912v-1538l846 743v-782h-1758z" />
    <glyph glyph-name="M" unicode="M" horiz-adv-x="2367" 
d="M141 0v805l510 -805h-510zM1380 920l418 657h477v-1577h-895v920zM143 1049v528h707l471 -750l-520 -815z" />
    <glyph glyph-name="N" unicode="N" horiz-adv-x="1812" 
d="M135 1022v555h725l873 -999v-578h-723zM135 0v813l694 -813h-694zM1733 776l-695 801h695v-801z" />
    <glyph glyph-name="O" unicode="O" 
d="M1118 -8v1595h80q171 0 322 -60q154 -63 265 -169q112 -108 175 -253t63 -312q0 -170 -61 -314q-63 -149 -173 -257q-113 -112 -263 -170q-150 -60 -322 -60h-86zM983 1587v-1595h-121q-213 0 -392 108q-179 106 -285 292q-105 185 -105 399q0 169 62 317q63 149 173 254
q114 108 267 166q156 59 331 59h70z" />
    <glyph glyph-name="P" unicode="P" horiz-adv-x="2091" 
d="M145 0v1577h902v-1577h-902zM1180 471v1106h276q177 0 319 -72q140 -71 220 -200q78 -127 78 -289q0 -114 -43 -213q-44 -101 -125 -176q-82 -74 -187 -115q-108 -41 -227 -41h-311z" />
    <glyph glyph-name="Q" unicode="Q" horiz-adv-x="2091" 
d="M1929 279l180 -285h-585q116 38 194 90q22 13 76 55q63 55 135 140zM1118 -8v1595h80q171 0 322 -60q154 -63 265 -169q112 -108 175 -253t63 -312q0 -170 -61 -314q-63 -149 -173 -257q-113 -112 -263 -170q-150 -60 -322 -60h-86zM983 1587v-1595h-121q-213 0 -392 108
q-179 106 -285 292q-105 185 -105 399q0 169 62 317q63 149 173 254q114 108 267 166q156 59 331 59h70z" />
    <glyph glyph-name="R" unicode="R" horiz-adv-x="2177" 
d="M156 0v1577h901v-1577h-901zM1192 0v1577h254q125 0 201 -3q80 -3 129 -13q51 -10 92 -27q86 -37 141 -96q49 -52 76 -120q26 -69 26 -142q0 -174 -116 -287q-35 -35 -68 -55q-30 -18 -104 -52q63 -21 95 -39q35 -20 64 -49q134 -120 134 -332v-362h-924z" />
    <glyph glyph-name="S" unicode="S" horiz-adv-x="1729" 
d="M651 1567l846 -693q120 -96 172 -189q53 -95 53 -212q0 -144 -80 -260q-79 -116 -217 -172q-38 -16 -65 -22q-38 -9 -76 -13q-43 -4 -104 -6l-230 161l-161 116q-151 111 -292 231q-138 114 -219 203q-80 85 -114 149q-27 53 -42 116q-16 63 -16 118q0 152 78 264
q78 113 219 170q55 21 109 30q53 8 139 9zM115 0v659l841 -659h-841zM1630 938l-778 639h778v-639z" />
    <glyph glyph-name="T" unicode="T" horiz-adv-x="1962" 
d="M92 866v711h1819v-709l-453 639h-4v-1507h-905v1507h-4z" />
    <glyph glyph-name="U" unicode="U" horiz-adv-x="1749" 
d="M133 635v942h905v-1536q89 8 135 18q49 11 99 35q92 40 162 113q149 155 149 399v365l-467 606h529v-977q0 -273 -172 -442q-68 -65 -145 -105q-75 -39 -175 -59q-95 -19 -223 -19q-150 0 -261 19q-116 18 -197 58q-84 40 -148 102q-90 86 -140 214q-51 128 -51 267z" />
    <glyph glyph-name="V" unicode="V" horiz-adv-x="2028" 
d="M602 0l-575 1577h985l477 -1301l-113 -276h-774zM1567 461l-414 1116h868z" />
    <glyph glyph-name="W" unicode="W" horiz-adv-x="2367" 
d="M1362 0l-404 1577h795l338 -1124l-113 -453h-616zM383 0l-354 1577h794l285 -1124l-115 -453h-610zM2154 700l-260 877h478z" />
    <glyph glyph-name="X" unicode="X" horiz-adv-x="1921" 
d="M37 0l346 633l330 -633h-676zM43 1559v18h1036l840 -1577h-1055zM1581 911l-348 666h709z" />
    <glyph glyph-name="Y" unicode="Y" 
d="M586 608l-549 969h928l522 -915v-662h-901v608zM1571 788l-451 789h934z" />
    <glyph glyph-name="Z" unicode="Z" horiz-adv-x="2177" 
d="M1311 0l755 1296v-1296h-755zM74 0l930 1577h1056l2 -21l-909 -1556h-1079zM115 340v1237h739z" />
    <glyph glyph-name="bracketleft" unicode="[" horiz-adv-x="1194" 
d="M160 -295v1866h637v-1866h-637zM877 -295v74h286v-74h-286zM870 1497v76h281v-76h-281z" />
    <glyph glyph-name="backslash" unicode="\" horiz-adv-x="748" 
d="M41 1569h336l360 -1567h-328z" />
    <glyph glyph-name="bracketright" unicode="]" horiz-adv-x="1194" 
d="M428 -295v1864h639v-1864h-639zM68 -295v72h278v-72h-278zM74 1497v74h280v-74h-280z" />
    <glyph glyph-name="asciicircum" unicode="^" horiz-adv-x="1280" 
d="M445 766h-320l392 811h251l387 -811h-319l-195 493z" />
    <glyph glyph-name="underscore" unicode="_" horiz-adv-x="1024" 
d="M1036 -256h-1048v105h1048v-105z" />
    <glyph glyph-name="grave" unicode="`" horiz-adv-x="682" 
d="M492 1239l-418 334h418v-334z" />
    <glyph glyph-name="a" unicode="a" horiz-adv-x="1536" 
d="M682 715v-715h-213q-84 0 -156 28q-75 28 -125 76q-51 46 -80 114q-28 63 -28 144q0 132 80 230q36 49 102 94q54 -39 99 -54q44 -16 100 -16q65 0 117 23q50 22 104 76zM817 0v1165h125q172 0 286 -54q115 -54 170 -165q56 -112 56 -280v-666h-637zM453 1163
q63 0 118 -31q54 -31 86 -85q31 -53 31 -119q0 -67 -31 -119q-31 -53 -86 -85q-56 -32 -118 -32q-61 0 -117 32q-54 31 -86 87q-31 53 -31 117q0 62 31 117q32 56 86 86q56 32 117 32z" />
    <glyph glyph-name="b" unicode="b" horiz-adv-x="1599" 
d="M897 2v1157q46 2 92 2q118 0 220 -46q104 -47 184 -131q81 -86 126 -193q44 -111 44 -232q0 -110 -44 -215q-43 -103 -122 -182q-79 -77 -180 -121q-101 -43 -216 -43q-31 0 -104 4zM139 0v1567h625v-1567h-625z" />
    <glyph glyph-name="c" unicode="c" horiz-adv-x="1323" 
d="M1235 344l68 -16q-37 -69 -60 -99q-18 -26 -61 -65q-174 -162 -469 -162q-186 0 -332 75q-74 39 -129 90t-97 121q-81 135 -81 308q0 110 48 222q47 111 126 192q164 164 422 164h28v-1104q57 -7 74 -7q164 0 305 105q51 39 82 73q31 32 76 103zM1065 1167q66 0 118 -31
q53 -31 84 -84q31 -52 31 -118t-31 -118t-85 -83q-52 -31 -117 -31q-63 0 -115 31q-53 32 -84 85q-32 53 -32 116q0 65 31 117q32 54 84 85t116 31z" />
    <glyph glyph-name="d" unicode="d" horiz-adv-x="1599" 
d="M737 1163v-1161h-39q-85 0 -131 7q-49 6 -112 30q-116 41 -197 119q-85 81 -129 189q-45 107 -45 231q0 173 98 322q98 147 256 212q99 43 226 49q5 1 14 1.5t15 0.5h44zM870 0v1567h633v-1567h-633z" />
    <glyph glyph-name="e" unicode="e" horiz-adv-x="1493" 
d="M1364 434l61 -28q-28 -79 -52 -123q-25 -46 -66 -90q-84 -96 -189 -138q-148 -63 -354 -63q-119 0 -216 20q-98 20 -172 59q-77 39 -138 103q-80 83 -122 188q-42 104 -42 224q0 122 46 230t130 190q83 81 192 126q111 44 234 44h24v-1113q78 -6 111 -6q252 0 403 144
q51 48 80 93q31 49 70 140zM1454 592h-620v586q85 -6 146 -17q55 -10 107 -35q110 -43 199 -133q60 -60 103 -140q45 -84 55 -153q7 -43 10 -108z" />
    <glyph glyph-name="f" unicode="f" horiz-adv-x="1044" 
d="M33 1094v69h149q19 110 54 172q42 80 102 129q138 123 346 123h23q-45 -34 -67 -80q-22 -44 -22 -104q0 -70 34 -125q33 -55 94 -85q62 -30 137 -30h168v-71h-244v-1092h-629v1094h-145zM860 1587q77 0 132 -54t55 -132q0 -76 -55 -130t-132 -54q-78 0 -130 55
q-54 54 -54 129q0 77 54 132q53 54 130 54z" />
    <glyph glyph-name="g" unicode="g" horiz-adv-x="1599" 
d="M864 -313v1480h631v-950q0 -100 -15 -180q-15 -77 -47 -136q-33 -59 -84 -99q-53 -42 -126 -70q-121 -45 -287 -45h-72zM731 1169v-1171h-69q-158 0 -294 80q-135 79 -214 214q-80 134 -80 292q0 125 45 233q44 108 126 187q81 78 193 122q108 43 242 43h51z" />
    <glyph glyph-name="h" unicode="h" horiz-adv-x="1622" 
d="M1540 0h-635v1159q84 15 156 15q113 0 200 -28q88 -28 152 -86t95 -135q32 -81 32 -180v-745zM145 0v1567h627v-1567h-627z" />
    <glyph glyph-name="i" unicode="i" horiz-adv-x="874" 
d="M432 1587q153 0 244 -48q92 -48 92 -128q0 -47 -41 -85t-113 -59q-70 -22 -163 -22q-143 0 -228 46q-86 47 -86 126q0 75 81 123q82 47 214 47zM141 0v1157h633v-1157h-633z" />
    <glyph glyph-name="j" unicode="j" horiz-adv-x="854" 
d="M426 1583q78 0 139 -12q60 -12 105 -35q40 -21 68 -55q24 -33 24 -74q0 -71 -91 -117q-92 -47 -227 -47q-143 0 -229 47t-86 123q0 49 38 89q38 39 104 60t155 21zM133 -315v1472h633v-1040q0 -137 -64 -234t-187 -147q-121 -51 -294 -51h-88z" />
    <glyph glyph-name="k" unicode="k" horiz-adv-x="1749" 
d="M137 0v1567h627v-1084l426 367l563 -850h-727l-260 446h-4v-446h-625zM1190 852l-197 305h557z" />
    <glyph glyph-name="l" unicode="l" horiz-adv-x="874" 
d="M139 0v1567h633v-1567h-633z" />
    <glyph glyph-name="m" unicode="m" horiz-adv-x="2367" 
d="M2271 0h-631v721q0 126 -51 235q-22 51 -43 78q-22 29 -63 66q54 29 115 42q68 15 151 15q522 0 522 -448v-709zM883 0v1157h55q148 0 268 -35q116 -34 183 -100q41 -41 66 -95q26 -57 38 -127q12 -72 12 -163v-637h-622zM125 0v1157h625v-1157h-625z" />
    <glyph glyph-name="n" unicode="n" horiz-adv-x="1622" 
d="M891 0v1157h174q137 0 245 -47q105 -48 162 -136q56 -89 56 -204v-770h-637zM129 0v1157h629v-1157h-629z" />
    <glyph glyph-name="o" unicode="o" horiz-adv-x="1579" 
d="M874 -8v1177h23q142 0 259 -43q120 -44 203 -122q86 -80 134 -189q47 -111 47 -237q0 -167 -82 -300t-228 -210q-145 -76 -327 -76h-29zM737 1169v-1177h-32q-175 0 -320 77q-143 76 -226 212t-83 299q0 122 47 231q46 106 133 189q87 82 199 125q114 44 243 44h39z" />
    <glyph glyph-name="p" unicode="p" horiz-adv-x="1599" 
d="M137 -315v1472h629v-1472h-629zM901 -6v1163h37q171 0 316 -77q144 -76 227 -211q82 -133 82 -296q0 -128 -43 -233q-43 -106 -123 -184q-80 -79 -192 -121q-110 -43 -242 -43q-5 1 -13 1t-15 1h-34z" />
    <glyph glyph-name="q" unicode="q" horiz-adv-x="1599" 
d="M864 -315v1472h633v-1472h-633zM668 1153h61v-1161h-63q-121 0 -232 44q-109 43 -189 125q-81 80 -125 188t-44 231q0 120 44 228q43 106 124 184t189 120q109 41 235 41z" />
    <glyph glyph-name="r" unicode="r" horiz-adv-x="1366" 
d="M133 0v1157h625v-170q89 87 168 127q77 39 161 39q74 0 136 -32q63 -32 97 -90t34 -126q0 -65 -31 -120t-87 -87t-122 -32q-104 0 -175 71t-71 178q0 41 15 93q-54 -35 -125 -109v-899h-625z" />
    <glyph glyph-name="s" unicode="s" horiz-adv-x="1217" 
d="M285 340q47 0 89 -24q41 -24 65 -65q24 -42 24 -89q0 -49 -23 -90q-24 -42 -66 -66t-89 -24q-49 0 -91 24q-43 24 -66 66q-24 41 -24 90q0 47 24 89q24 41 66 65t91 24zM608 281l-219 79q-149 53 -230 158q-83 107 -83 240q0 115 61 212q60 98 163 153t228 55q21 0 39 -2
q-33 -43 -40 -60q-9 -21 -9 -49q0 -116 199 -197l141 -55q114 -47 189 -109q75 -63 114 -142t39 -173q0 -109 -51 -199q-52 -90 -141 -143q-91 -53 -197 -53q-44 0 -109 6q56 62 56 119q0 105 -150 160zM958 1194q49 0 91 -24t66 -66t24 -90q0 -47 -23 -88q-24 -41 -66 -65
q-43 -25 -92 -25q-73 0 -125 52q-53 53 -53 126q0 74 53 127t125 53z" />
    <glyph glyph-name="t" unicode="t" horiz-adv-x="961" 
d="M147 381v776l621 221v-221h203v-84h-195v-1087h-49q-165 0 -297 52q-136 52 -208 142q-75 90 -75 201z" />
    <glyph glyph-name="u" unicode="u" horiz-adv-x="1622" 
d="M889 0v1157h633v-1157h-633zM129 399v758h627v-1157h-70q-169 0 -295 48q-64 24 -112 58.5t-82 79.5q-68 91 -68 213z" />
    <glyph glyph-name="v" unicode="v" horiz-adv-x="1493" 
d="M487 0l-460 1157h673l406 -1007l-59 -150h-560zM1178 330l-332 827h657z" />
    <glyph glyph-name="w" unicode="w" horiz-adv-x="2068" 
d="M1272 0l-434 1157h665l324 -850l-92 -307h-463zM463 0l-426 1157h659l320 -858l-92 -299h-461zM1888 514l-243 643h432z" />
    <glyph glyph-name="x" unicode="x" horiz-adv-x="1366" 
d="M49 0l225 436l236 -436h-461zM664 0l-625 1157h706l633 -1157h-714zM1130 727l-235 430h448z" />
    <glyph glyph-name="y" unicode="y" horiz-adv-x="1772" 
d="M633 80q56 0 102 -27q45 -28 74 -75q27 -47 27 -103q0 -57 -27 -103q-28 -46 -75 -73q-46 -27 -101 -27t-102 27q-48 27 -75 73q-28 46 -28 103t28 103q27 46 74 75q47 27 103 27zM590 160l-543 997h688l510 -924q-34 -70 -73.5 -143t-67.5 -113q-39 -55 -70 -92
q-28 -33 -61 -64q-23 -22 -84 -67q26 66 26 119q0 77 -38 144q-37 64 -103 106q-64 39 -141 39q-17 0 -43 -2zM1327 362l-438 795h895z" />
    <glyph glyph-name="z" unicode="z" horiz-adv-x="1599" 
d="M961 -4l542 930v-930h-542zM82 -4l680 1163h727l-682 -1163h-725zM129 338v821h481z" />
    <glyph glyph-name="braceleft" unicode="{" horiz-adv-x="797" 
d="M643 1599h135v-329h-35q-54 0 -83 -12q-30 -12 -48 -44q-17 -33 -21 -64q-3 -24 -5 -142q-2 -106 -14 -168q-13 -67 -44 -113q-22 -32 -45 -50q-24 -17 -75 -40q52 -24 74 -40q26 -20 40 -44q36 -53 50 -121q14 -72 14 -190q0 -90 8 -133q8 -41 27 -68q18 -24 49 -33
q40 -8 108 -8v-324h-127q-266 0 -348 97q-32 36 -48 76q-17 39 -25 97q-7 52 -7 142v72q2 18 2 45q0 146 -41 202q-40 55 -155 58v342q97 0 135 41q35 35 47 81q12 45 12 144v33v43q0 181 36 277q36 95 126 134q89 39 258 39z" />
    <glyph glyph-name="bar" unicode="|" horiz-adv-x="657" 
d="M171 1567h330l-1 -1880h-328z" />
    <glyph glyph-name="braceright" unicode="}" horiz-adv-x="797" 
d="M154 -324h-136v328h35q56 0 85 13q29 12 46 44q16 31 21 64q4 31 6 143q3 199 57 281q20 31 47 51q27 19 74 39q-87 40 -115 84q-36 55 -49 120q-14 70 -14 189q0 97 -7 138t-28 65q-24 27 -49 31q-34 10 -109 10v323h127q265 0 349 -96q46 -49 64 -119q17 -71 17 -196
v-39q0 -7 -0.5 -17t-1.5 -16q-2 -18 -2 -45q0 -146 42 -202q42 -55 155 -58v-344q-54 0 -84 -8q-29 -9 -51 -31q-33 -34 -47 -81q-13 -45 -13 -146v-33v-43q0 -182 -36 -276q-36 -95 -124 -134t-259 -39z" />
    <glyph glyph-name="asciitilde" unicode="~" horiz-adv-x="1280" 
d="M88 562v293q78 73 158 109.5t166 36.5q102 0 301 -89q129 -58 192 -58q130 0 287 150v-298q-164 -143 -310 -143q-56 0 -110 14q-50 13 -162 65q-145 69 -227 69q-140 0 -295 -149z" />
    <glyph glyph-name="Adieresis" unicode="&#xc4;" horiz-adv-x="1855" 
d="M438 965l262 624h476l686 -1589h-1022l-285 684h-145l282 -684h-665l338 799h141zM1174 2001h6q91 -3 149 -49t58 -117q0 -50 -25 -87q-26 -38 -73 -59q-47 -22 -111 -22q-87 0 -146 48t-59 120q0 71 58 119q58 47 143 47zM690 2001h4q95 -3 151 -47q56 -45 56 -119
q0 -73 -59 -120q-60 -48 -148 -48q-84 0 -145 49t-61 119q0 74 57 120q55 46 145 46z" />
    <glyph glyph-name="Aring" unicode="&#xc5;" horiz-adv-x="1855" 
d="M438 965l262 624h476l686 -1589h-1022l-285 684h-145l282 -684h-665l338 799h141zM936 1956q-109 0 -166 -28q-59 -29 -59 -81q0 -104 219 -104q122 0 176 25q55 24 55 77q0 57 -55 84t-170 27zM942 2021q143 0 214 -43q71 -44 71 -131q0 -84 -71 -128q-73 -44 -208 -44
q-148 0 -226 45q-79 45 -79 129q0 85 77 129q76 43 222 43z" />
    <glyph glyph-name="Ccedilla" unicode="&#xc7;" horiz-adv-x="1749" 
d="M1683 696v-696h-809q-214 0 -397 108q-183 106 -293 291q-110 184 -110 396q0 168 64 312q62 144 179 253q116 109 270 167q153 58 333 58h761v-690l-698 664v-1526zM681 -453l219 186v-186h-219zM978 -455v401q45 6 67 6q97 0 161 -55t64 -139q0 -98 -76 -153
q-76 -56 -216 -60z" />
    <glyph glyph-name="Eacute" unicode="&#xc9;" horiz-adv-x="1878" 
d="M139 0v1577h1655v-594l-158 119v-588l162 131v-645h-1659zM1632 510l-585 268v-745zM1630 1108l-579 434v-745zM805 1663v328h418z" />
    <glyph glyph-name="Ntilde" unicode="&#xd1;" horiz-adv-x="1812" 
d="M135 1022v555h725l873 -999v-578h-723zM135 0v813l694 -813h-694zM1733 776l-695 801h695v-801zM954 1667v332h410v-19q0 -61 -23 -127q-23 -63 -63 -104q-45 -42 -113 -62q-69 -20 -174 -20h-37zM872 1667h-405v23q0 151 94 230q92 79 270 79h41v-332z" />
    <glyph glyph-name="Odieresis" unicode="&#xd6;" 
d="M1118 -8v1595h80q171 0 322 -60q154 -63 265 -169q112 -108 175 -253t63 -312q0 -170 -61 -314q-63 -149 -173 -257q-113 -112 -263 -170q-150 -60 -322 -60h-86zM983 1587v-1595h-121q-213 0 -392 108q-179 106 -285 292q-105 185 -105 399q0 169 62 317q63 149 173 254
q114 108 267 166q156 59 331 59h70zM1270 2001h6q91 -3 149 -49t58 -117q0 -50 -25 -87q-26 -38 -73 -59q-47 -22 -111 -22q-87 0 -146 48t-59 120q0 71 58 119q58 47 143 47zM786 2001h4q95 -3 151 -47q56 -45 56 -119q0 -73 -59 -120q-60 -48 -148 -48q-84 0 -145 49
t-61 119q0 74 57 120q55 46 145 46z" />
    <glyph glyph-name="Udieresis" unicode="&#xdc;" horiz-adv-x="1749" 
d="M133 635v942h905v-1536q89 8 135 18q49 11 99 35q92 40 162 113q149 155 149 399v365l-467 606h529v-977q0 -273 -172 -442q-68 -65 -145 -105q-75 -39 -175 -59q-95 -19 -223 -19q-150 0 -261 19q-116 18 -197 58q-84 40 -148 102q-90 86 -140 214q-51 128 -51 267z
M1175 2001h6q91 -3 149 -49t58 -117q0 -50 -25 -87q-26 -38 -73 -59q-47 -22 -111 -22q-87 0 -146 48t-59 120q0 71 58 119q58 47 143 47zM691 2001h4q95 -3 151 -47q56 -45 56 -119q0 -73 -59 -120q-60 -48 -148 -48q-84 0 -145 49t-61 119q0 74 57 120q55 46 145 46z" />
    <glyph glyph-name="aacute" unicode="&#xe1;" horiz-adv-x="1536" 
d="M682 715v-715h-213q-84 0 -156 28q-75 28 -125 76q-51 46 -80 114q-28 63 -28 144q0 132 80 230q36 49 102 94q54 -39 99 -54q44 -16 100 -16q65 0 117 23q50 22 104 76zM817 0v1165h125q172 0 286 -54q115 -54 170 -165q56 -112 56 -280v-666h-637zM453 1163
q63 0 118 -31q54 -31 86 -85q31 -53 31 -119q0 -67 -31 -119q-31 -53 -86 -85q-56 -32 -118 -32q-61 0 -117 32q-54 31 -86 87q-31 53 -31 117q0 62 31 117q32 56 86 86q56 32 117 32zM703 1237v328h418z" />
    <glyph glyph-name="agrave" unicode="&#xe0;" horiz-adv-x="1536" 
d="M682 715v-715h-213q-84 0 -156 28q-75 28 -125 76q-51 46 -80 114q-28 63 -28 144q0 132 80 230q36 49 102 94q54 -39 99 -54q44 -16 100 -16q65 0 117 23q50 22 104 76zM817 0v1165h125q172 0 286 -54q115 -54 170 -165q56 -112 56 -280v-666h-637zM453 1163
q63 0 118 -31q54 -31 86 -85q31 -53 31 -119q0 -67 -31 -119q-31 -53 -86 -85q-56 -32 -118 -32q-61 0 -117 32q-54 31 -86 87q-31 53 -31 117q0 62 31 117q32 56 86 86q56 32 117 32zM920 1239l-418 334h418v-334z" />
    <glyph glyph-name="acircumflex" unicode="&#xe2;" horiz-adv-x="1536" 
d="M682 715v-715h-213q-84 0 -156 28q-75 28 -125 76q-51 46 -80 114q-28 63 -28 144q0 132 80 230q36 49 102 94q54 -39 99 -54q44 -16 100 -16q65 0 117 23q50 22 104 76zM817 0v1165h125q172 0 286 -54q115 -54 170 -165q56 -112 56 -280v-666h-637zM453 1163
q63 0 118 -31q54 -31 86 -85q31 -53 31 -119q0 -67 -31 -119q-31 -53 -86 -85q-56 -32 -118 -32q-61 0 -117 32q-54 31 -86 87q-31 53 -31 117q0 62 31 117q32 56 86 86q56 32 117 32zM362 1241l200 221l209 -221h-409zM618 1526l51 55h282l312 -340h-383z" />
    <glyph glyph-name="adieresis" unicode="&#xe4;" horiz-adv-x="1536" 
d="M682 715v-715h-213q-84 0 -156 28q-75 28 -125 76q-51 46 -80 114q-28 63 -28 144q0 132 80 230q36 49 102 94q54 -39 99 -54q44 -16 100 -16q65 0 117 23q50 22 104 76zM817 0v1165h125q172 0 286 -54q115 -54 170 -165q56 -112 56 -280v-666h-637zM453 1163
q63 0 118 -31q54 -31 86 -85q31 -53 31 -119q0 -67 -31 -119q-31 -53 -86 -85q-56 -32 -118 -32q-61 0 -117 32q-54 31 -86 87q-31 53 -31 117q0 62 31 117q32 56 86 86q56 32 117 32zM1034 1575h6q91 -3 149 -49t58 -117q0 -50 -25 -87q-26 -38 -73 -59q-47 -22 -111 -22
q-87 0 -146 48t-59 120q0 71 58 119q58 47 143 47zM550 1575h4q95 -3 151 -47q56 -45 56 -119q0 -73 -59 -120q-60 -48 -148 -48q-84 0 -145 49t-61 119q0 74 57 120q55 46 145 46z" />
    <glyph glyph-name="atilde" unicode="&#xe3;" horiz-adv-x="1536" 
d="M682 715v-715h-213q-84 0 -156 28q-75 28 -125 76q-51 46 -80 114q-28 63 -28 144q0 132 80 230q36 49 102 94q54 -39 99 -54q44 -16 100 -16q65 0 117 23q50 22 104 76zM817 0v1165h125q172 0 286 -54q115 -54 170 -165q56 -112 56 -280v-666h-637zM453 1163
q63 0 118 -31q54 -31 86 -85q31 -53 31 -119q0 -67 -31 -119q-31 -53 -86 -85q-56 -32 -118 -32q-61 0 -117 32q-54 31 -86 87q-31 53 -31 117q0 62 31 117q32 56 86 86q56 32 117 32zM817 1241v332h410v-19q0 -61 -23 -127q-23 -63 -63 -104q-45 -42 -113 -62
q-69 -20 -174 -20h-37zM735 1241h-405v23q0 151 94 230q92 79 270 79h41v-332z" />
    <glyph glyph-name="aring" unicode="&#xe5;" horiz-adv-x="1536" 
d="M682 715v-715h-213q-84 0 -156 28q-75 28 -125 76q-51 46 -80 114q-28 63 -28 144q0 132 80 230q36 49 102 94q54 -39 99 -54q44 -16 100 -16q65 0 117 23q50 22 104 76zM817 0v1165h125q172 0 286 -54q115 -54 170 -165q56 -112 56 -280v-666h-637zM453 1163
q63 0 118 -31q54 -31 86 -85q31 -53 31 -119q0 -67 -31 -119q-31 -53 -86 -85q-56 -32 -118 -32q-61 0 -117 32q-54 31 -86 87q-31 53 -31 117q0 62 31 117q32 56 86 86q56 32 117 32zM800 1530q-109 0 -166 -28q-59 -29 -59 -81q0 -104 219 -104q122 0 176 25q55 24 55 77
q0 57 -55 84t-170 27zM806 1595q143 0 214 -43q71 -44 71 -131q0 -84 -71 -128q-73 -44 -208 -44q-148 0 -226 45q-79 45 -79 129q0 85 77 129q76 43 222 43z" />
    <glyph glyph-name="ccedilla" unicode="&#xe7;" horiz-adv-x="1323" 
d="M1235 344l68 -16q-37 -69 -60 -99q-18 -26 -61 -65q-174 -162 -469 -162q-186 0 -332 75q-74 39 -129 90t-97 121q-81 135 -81 308q0 110 48 222q47 111 126 192q164 164 422 164h28v-1104q57 -7 74 -7q164 0 305 105q51 39 82 73q31 32 76 103zM1065 1167q66 0 118 -31
q53 -31 84 -84q31 -52 31 -118t-31 -118t-85 -83q-52 -31 -117 -31q-63 0 -115 31q-53 32 -84 85q-32 53 -32 116q0 65 31 117q32 54 84 85t116 31zM395 -449l219 186v-186h-219zM692 -451v401q45 6 67 6q97 0 161 -55t64 -139q0 -98 -76 -153q-76 -56 -216 -60z" />
    <glyph glyph-name="eacute" unicode="&#xe9;" horiz-adv-x="1493" 
d="M1364 434l61 -28q-28 -79 -52 -123q-25 -46 -66 -90q-84 -96 -189 -138q-148 -63 -354 -63q-119 0 -216 20q-98 20 -172 59q-77 39 -138 103q-80 83 -122 188q-42 104 -42 224q0 122 46 230t130 190q83 81 192 126q111 44 234 44h24v-1113q78 -6 111 -6q252 0 403 144
q51 48 80 93q31 49 70 140zM1454 592h-620v586q85 -6 146 -17q55 -10 107 -35q110 -43 199 -133q60 -60 103 -140q45 -84 55 -153q7 -43 10 -108zM613 1237v328h418z" />
    <glyph glyph-name="egrave" unicode="&#xe8;" horiz-adv-x="1493" 
d="M1364 434l61 -28q-28 -79 -52 -123q-25 -46 -66 -90q-84 -96 -189 -138q-148 -63 -354 -63q-119 0 -216 20q-98 20 -172 59q-77 39 -138 103q-80 83 -122 188q-42 104 -42 224q0 122 46 230t130 190q83 81 192 126q111 44 234 44h24v-1113q78 -6 111 -6q252 0 403 144
q51 48 80 93q31 49 70 140zM1454 592h-620v586q85 -6 146 -17q55 -10 107 -35q110 -43 199 -133q60 -60 103 -140q45 -84 55 -153q7 -43 10 -108zM898 1239l-418 334h418v-334z" />
    <glyph glyph-name="ecircumflex" unicode="&#xea;" horiz-adv-x="1493" 
d="M1364 434l61 -28q-28 -79 -52 -123q-25 -46 -66 -90q-84 -96 -189 -138q-148 -63 -354 -63q-119 0 -216 20q-98 20 -172 59q-77 39 -138 103q-80 83 -122 188q-42 104 -42 224q0 122 46 230t130 190q83 81 192 126q111 44 234 44h24v-1113q78 -6 111 -6q252 0 403 144
q51 48 80 93q31 49 70 140zM1454 592h-620v586q85 -6 146 -17q55 -10 107 -35q110 -43 199 -133q60 -60 103 -140q45 -84 55 -153q7 -43 10 -108zM304 1241l200 221l209 -221h-409zM560 1526l51 55h282l312 -340h-383z" />
    <glyph glyph-name="edieresis" unicode="&#xeb;" horiz-adv-x="1493" 
d="M1364 434l61 -28q-28 -79 -52 -123q-25 -46 -66 -90q-84 -96 -189 -138q-148 -63 -354 -63q-119 0 -216 20q-98 20 -172 59q-77 39 -138 103q-80 83 -122 188q-42 104 -42 224q0 122 46 230t130 190q83 81 192 126q111 44 234 44h24v-1113q78 -6 111 -6q252 0 403 144
q51 48 80 93q31 49 70 140zM1454 592h-620v586q85 -6 146 -17q55 -10 107 -35q110 -43 199 -133q60 -60 103 -140q45 -84 55 -153q7 -43 10 -108zM992 1575h6q91 -3 149 -49t58 -117q0 -50 -25 -87q-26 -38 -73 -59q-47 -22 -111 -22q-87 0 -146 48t-59 120q0 71 58 119
q58 47 143 47zM508 1575h4q95 -3 151 -47q56 -45 56 -119q0 -73 -59 -120q-60 -48 -148 -48q-84 0 -145 49t-61 119q0 74 57 120q55 46 145 46z" />
    <glyph glyph-name="iacute" unicode="&#xed;" horiz-adv-x="874" 
d="M141 0v1157h633v-1157h-633zM339 1237v328h418z" />
    <glyph glyph-name="igrave" unicode="&#xec;" horiz-adv-x="874" 
d="M141 0v1157h633v-1157h-633zM588 1239l-418 334h418v-334z" />
    <glyph glyph-name="icircumflex" unicode="&#xee;" horiz-adv-x="874" 
d="M141 0v1157h633v-1157h-633zM-6 1241l200 221l209 -221h-409zM250 1526l51 55h282l312 -340h-383z" />
    <glyph glyph-name="idieresis" unicode="&#xef;" horiz-adv-x="874" 
d="M141 0v1157h633v-1157h-633zM682 1575h6q91 -3 149 -49t58 -117q0 -50 -25 -87q-26 -38 -73 -59q-47 -22 -111 -22q-87 0 -146 48t-59 120q0 71 58 119q58 47 143 47zM198 1575h4q95 -3 151 -47q56 -45 56 -119q0 -73 -59 -120q-60 -48 -148 -48q-84 0 -145 49t-61 119
q0 74 57 120q55 46 145 46z" />
    <glyph glyph-name="ntilde" unicode="&#xf1;" horiz-adv-x="1622" 
d="M891 0v1157h174q137 0 245 -47q105 -48 162 -136q56 -89 56 -204v-770h-637zM129 0v1157h629v-1157h-629zM860 1241v332h410v-19q0 -61 -23 -127q-23 -63 -63 -104q-45 -42 -113 -62q-69 -20 -174 -20h-37zM778 1241h-405v23q0 151 94 230q92 79 270 79h41v-332z" />
    <glyph glyph-name="oacute" unicode="&#xf3;" horiz-adv-x="1579" 
d="M874 -8v1177h23q142 0 259 -43q120 -44 203 -122q86 -80 134 -189q47 -111 47 -237q0 -167 -82 -300t-228 -210q-145 -76 -327 -76h-29zM737 1169v-1177h-32q-175 0 -320 77q-143 76 -226 212t-83 299q0 122 47 231q46 106 133 189q87 82 199 125q114 44 243 44h39z
M656 1237v328h418z" />
    <glyph glyph-name="ograve" unicode="&#xf2;" horiz-adv-x="1579" 
d="M874 -8v1177h23q142 0 259 -43q120 -44 203 -122q86 -80 134 -189q47 -111 47 -237q0 -167 -82 -300t-228 -210q-145 -76 -327 -76h-29zM737 1169v-1177h-32q-175 0 -320 77q-143 76 -226 212t-83 299q0 122 47 231q46 106 133 189q87 82 199 125q114 44 243 44h39z
M941 1239l-418 334h418v-334z" />
    <glyph glyph-name="ocircumflex" unicode="&#xf4;" horiz-adv-x="1579" 
d="M874 -8v1177h23q142 0 259 -43q120 -44 203 -122q86 -80 134 -189q47 -111 47 -237q0 -167 -82 -300t-228 -210q-145 -76 -327 -76h-29zM737 1169v-1177h-32q-175 0 -320 77q-143 76 -226 212t-83 299q0 122 47 231q46 106 133 189q87 82 199 125q114 44 243 44h39z
M347 1241l200 221l209 -221h-409zM603 1526l51 55h282l312 -340h-383z" />
    <glyph glyph-name="odieresis" unicode="&#xf6;" horiz-adv-x="1579" 
d="M874 -8v1177h23q142 0 259 -43q120 -44 203 -122q86 -80 134 -189q47 -111 47 -237q0 -167 -82 -300t-228 -210q-145 -76 -327 -76h-29zM737 1169v-1177h-32q-175 0 -320 77q-143 76 -226 212t-83 299q0 122 47 231q46 106 133 189q87 82 199 125q114 44 243 44h39z
M1035 1575h6q91 -3 149 -49t58 -117q0 -50 -25 -87q-26 -38 -73 -59q-47 -22 -111 -22q-87 0 -146 48t-59 120q0 71 58 119q58 47 143 47zM551 1575h4q95 -3 151 -47q56 -45 56 -119q0 -73 -59 -120q-60 -48 -148 -48q-84 0 -145 49t-61 119q0 74 57 120q55 46 145 46z" />
    <glyph glyph-name="otilde" unicode="&#xf5;" horiz-adv-x="1579" 
d="M874 -8v1177h23q142 0 259 -43q120 -44 203 -122q86 -80 134 -189q47 -111 47 -237q0 -167 -82 -300t-228 -210q-145 -76 -327 -76h-29zM737 1169v-1177h-32q-175 0 -320 77q-143 76 -226 212t-83 299q0 122 47 231q46 106 133 189q87 82 199 125q114 44 243 44h39z
M838 1241v332h410v-19q0 -61 -23 -127q-23 -63 -63 -104q-45 -42 -113 -62q-69 -20 -174 -20h-37zM756 1241h-405v23q0 151 94 230q92 79 270 79h41v-332z" />
    <glyph glyph-name="uacute" unicode="&#xfa;" horiz-adv-x="1622" 
d="M889 0v1157h633v-1157h-633zM129 399v758h627v-1157h-70q-169 0 -295 48q-64 24 -112 58.5t-82 79.5q-68 91 -68 213zM678 1237v328h418z" />
    <glyph glyph-name="ugrave" unicode="&#xf9;" horiz-adv-x="1622" 
d="M889 0v1157h633v-1157h-633zM129 399v758h627v-1157h-70q-169 0 -295 48q-64 24 -112 58.5t-82 79.5q-68 91 -68 213zM963 1239l-418 334h418v-334z" />
    <glyph glyph-name="ucircumflex" unicode="&#xfb;" horiz-adv-x="1622" 
d="M889 0v1157h633v-1157h-633zM129 399v758h627v-1157h-70q-169 0 -295 48q-64 24 -112 58.5t-82 79.5q-68 91 -68 213zM369 1241l200 221l209 -221h-409zM625 1526l51 55h282l312 -340h-383z" />
    <glyph glyph-name="udieresis" unicode="&#xfc;" horiz-adv-x="1622" 
d="M889 0v1157h633v-1157h-633zM129 399v758h627v-1157h-70q-169 0 -295 48q-64 24 -112 58.5t-82 79.5q-68 91 -68 213zM1057 1575h6q91 -3 149 -49t58 -117q0 -50 -25 -87q-26 -38 -73 -59q-47 -22 -111 -22q-87 0 -146 48t-59 120q0 71 58 119q58 47 143 47zM573 1575h4
q95 -3 151 -47q56 -45 56 -119q0 -73 -59 -120q-60 -48 -148 -48q-84 0 -145 49t-61 119q0 74 57 120q55 46 145 46z" />
    <glyph glyph-name="dagger" unicode="&#x2020;" horiz-adv-x="1387" 
d="M1011 1577v-425h353v-158h-353v-1294h-634v1294h-354v158h354v425h634z" />
    <glyph glyph-name="degree" unicode="&#xb0;" horiz-adv-x="811" 
d="M405 1402q-52 0 -89 -37q-38 -38 -38 -90q0 -51 38 -89t89 -38q53 0 90 37t37 90t-37 90t-90 37zM406 1577q122 0 212 -87t90 -216q0 -124 -89 -213t-213 -89q-125 0 -214 89t-89 213q0 130 90 217q91 86 213 86z" />
    <glyph glyph-name="cent" unicode="&#xa2;" horiz-adv-x="1323" 
d="M700 705l412 886h78l-205 -436q12 5 39 8q25 4 43 4q62 0 118 -32q56 -33 87 -88t31 -117q0 -60 -31 -112t-87 -84t-116 -32q-158 0 -223 156l-148 -311v-477q53 -9 84 -9q71 0 148 28q77 27 145 77q55 42 84 73q31 35 74 105l67 -18q-59 -109 -120 -164
q-80 -69 -179 -109q-127 -51 -299 -51q-122 0 -243 37l-164 -352h-76l178 381q-58 30 -89 52q-29 21 -72 64q-160 169 -160 406q0 161 76 294q76 135 208 211q131 76 289 76h49l-2 -462z" />
    <glyph glyph-name="sterling" unicode="&#xa3;" 
d="M1337 680v115h633v-115h-633zM1669 1589q90 0 166 -44q75 -44 118 -120q44 -77 44 -165q0 -92 -44 -166q-45 -75 -119 -119q-75 -45 -165 -45q-91 0 -166 45q-76 43 -120 119t-44 166q0 88 44 165t120 120q76 44 166 44zM1333 438v58h711v-95q0 -147 -33 -254
q-14 -44 -28 -74q-21 -41 -44 -73h-686q30 69 47 138q18 78 25 147q8 80 8 153zM31 799h286v217q0 168 74 299q73 130 207 202t301 72h457q-45 -37 -67 -64q-25 -30 -46 -75q-37 -77 -37 -199v-649q0 -286 -43 -457q-17 -67 -55 -145h-887q39 67 60 137q36 129 36 287v260
h-286v115z" />
    <glyph glyph-name="section" unicode="&#xa7;" horiz-adv-x="1301" 
d="M323 34q71 0 121 -49q50 -50 50 -121q0 -70 -50 -120q-52 -50 -121 -50q-70 0 -120 50t-50 120q0 71 51 121q49 49 119 49zM792 -280q46 55 46 117q0 86 -64 144q-65 59 -238 107q-252 70 -344 168t-92 245q0 219 207 315q5 -69 75 -127q72 -59 297 -134
q88 -29 171.5 -62t126.5 -56q102 -52 164 -138q61 -85 61 -173q0 -132 -115 -253q-116 -122 -295 -153zM987 463q-3 66 -73 127q-71 62 -281 131q-312 103 -422 205q-111 104 -111 225q0 145 118 260q117 114 295 149q-46 -55 -46 -119q0 -77 48 -125q46 -49 89 -66
q42 -18 237 -81q361 -115 361 -390q0 -229 -215 -316zM969 1587q71 0 120 -49t49 -120t-49 -120q-50 -50 -120 -50q-69 0 -119 50t-50 120q0 72 51 121q50 48 118 48z" />
    <glyph glyph-name="bullet" unicode="&#x2022;" horiz-adv-x="717" 
d="M104 717q0 69 35 128q34 58 92 92q56 34 127 34q53 0 98 -18q46 -20 82 -56t56 -82q18 -45 18 -98q0 -104 -74 -178t-180 -74q-105 0 -179 75q-75 74 -75 177z" />
    <glyph glyph-name="paragraph" unicode="&#xb6;" horiz-adv-x="1429" 
d="M823 1287v-1592h-270v1041h-34q-227 0 -342 118q-116 119 -116 306q0 144 72 247q72 102 176 137q104 33 274 33h785v-290h-123v-1592h-267v1592h-155z" />
    <glyph glyph-name="germandbls" unicode="&#xdf;" horiz-adv-x="1599" 
d="M776 0h-622v1133q0 128 78 240q76 110 200 163q132 53 324 53h127q142 0 260 -26q116 -27 196 -76q81 -50 124 -119q44 -71 44 -156q0 -75 -36 -146t-103 -126q-36 -30 -63 -42q-23 -11 -91 -32v-4q114 -35 187 -90q74 -56 113 -134q38 -79 38 -173q0 -136 -63 -243
q-65 -108 -177 -166q-114 -60 -259 -60q-75 0 -154 14v1508h-123v-1518z" />
    <glyph glyph-name="registered" unicode="&#xae;" horiz-adv-x="1642" 
d="M678 1033v-204h88q160 0 160 102q0 49 -38 76q-40 26 -114 26h-96zM475 357v818h365q147 0 221 -58q74 -59 74 -176q0 -176 -222 -223v-4q50 -16 80 -47q27 -27 53 -69l89 -157q2 -3 8 -13t11 -22l14 -25.5t12 -23.5h-240l-31 60q-81 166 -127 221q-37 43 -80 43
q-10 0 -24 -2v-322h-203zM205 765q0 -169 83 -309q83 -141 224 -223q75 -42 151 -62t158 -20q166 0 309 83t225 224q83 142 83 307q0 166 -83 309q-82 143 -225 225q-142 82 -309 82t-309 -82q-141 -82 -224 -223q-83 -143 -83 -311zM57 765q0 207 103 383q102 176 279 279
q176 102 382 102t383 -102q176 -103 279 -279q102 -177 102 -383q0 -205 -102 -381q-104 -177 -280 -278q-176 -103 -382 -103t-382 103q-177 102 -279 278q-103 175 -103 381z" />
    <glyph glyph-name="copyright" unicode="&#xa9;" horiz-adv-x="1642" 
d="M205 763q0 -169 83 -309q83 -141 224 -223q75 -42 151 -62t158 -20q166 0 309 83t225 224q83 142 83 307q0 166 -83 309q-82 143 -225 225q-142 82 -309 82t-309 -82q-141 -82 -224 -223q-83 -143 -83 -311zM57 763q0 207 103 383q102 176 279 279q176 102 382 102
t383 -102q176 -103 279 -279q102 -177 102 -383q0 -205 -102 -381q-104 -177 -280 -278q-176 -103 -382 -103t-382 103q-177 102 -279 278q-103 175 -103 381zM999 671l205 -49q-87 -289 -377 -289q-185 0 -301 120q-116 119 -116 312q0 123 54 220q52 97 149 153
q95 55 214 55q95 0 173 -33q77 -35 128 -96q50 -62 68 -147l-197 -31q-36 160 -186 160q-83 0 -131 -74q-49 -73 -49 -203q0 -95 13 -144q13 -52 48 -91q50 -56 127 -56q67 0 113 49t65 144z" />
    <glyph glyph-name="trademark" unicode="&#x2122;" horiz-adv-x="1942" 
d="M930 772v815h356l113 -446h4l117 446h346v-815h-221v576h-5l-149 -576h-184l-148 576h-4v-576h-225zM37 1393v194h801v-194h-285v-621h-236v621h-280z" />
    <glyph glyph-name="acute" unicode="&#xb4;" horiz-adv-x="682" 
d="M207 1237v328h418z" />
    <glyph glyph-name="dieresis" unicode="&#xa8;" horiz-adv-x="682" 
d="M586 1575h6q91 -3 149 -49t58 -117q0 -50 -25 -87q-26 -38 -73 -59q-47 -22 -111 -22q-87 0 -146 48t-59 120q0 71 58 119q58 47 143 47zM102 1575h4q95 -3 151 -47q56 -45 56 -119q0 -73 -59 -120q-60 -48 -148 -48q-84 0 -145 49t-61 119q0 74 57 120q55 46 145 46z
" />
    <glyph glyph-name="notequal" unicode="&#x2260;" horiz-adv-x="1280" 
d="M96 620h388l67 177h-455v291h566l175 456h244l-175 -456h276v-291h-387l-67 -177h454v-291h-566l-176 -457h-244l176 457h-276v291z" />
    <glyph glyph-name="AE" unicode="&#xc6;" horiz-adv-x="2410" 
d="M462 963l262 614h1622v-592l-162 119v-590l162 129v-643h-1481l-287 684h-147l284 -684h-669l344 801h139zM2176 510l-588 285v-760zM2178 1106l-590 436v-729z" />
    <glyph glyph-name="Oslash" unicode="&#xd8;" horiz-adv-x="2068" 
d="M369 170l-228 -180l-73 92l213 172q-43 51 -68 87q-25 34 -46 77q-19 38 -36 84q-51 143 -51 289q0 227 108 408q106 181 298 285q190 103 427 103h70v-776l135 98v678h80q167 0 293 -43q66 -21 116 -48q52 -30 128 -87l219 178l74 -90l-207 -170q58 -66 85 -110
q30 -49 58 -121q59 -151 59 -303q0 -170 -61 -314q-63 -149 -173 -257q-113 -112 -263 -170q-150 -60 -322 -60h-86v770l-135 -105v-665h-121q-129 0 -272 51q-74 28 -114 52q-40 22 -107 75z" />
    <glyph glyph-name="infinity" unicode="&#x221e;" horiz-adv-x="1460" 
d="M806 541q68 -67 105 -99t73 -52q32 -17 92 -32q55 -13 110 6q56 20 91 65q35 44 37 101q2 51 -29 103t-92 78q-62 24 -144 -4q-53 -19 -103 -55q-56 -40 -140 -111zM671 541q-85 72 -141 112q-54 38 -103 54q-60 22 -110 13q-52 -11 -85 -41q-37 -34 -52 -71
q-17 -42 -17 -78q2 -57 37 -101q35 -45 91 -65q55 -19 109 -6q80 19 124 51t147 132zM738 608l111 97q36 32 72 53q41 26 81 43q74 32 143 28q70 -4 131 -41q60 -37 97 -94q37 -56 43 -123q8 -79 -29 -154q-37 -76 -110 -123q-74 -47 -162 -38q-72 8 -134 35q-65 27 -109 61
q-47 34 -87 76l-47 45l-27 -27l-29 -29q-34 -32 -77 -65q-42 -33 -108 -61q-62 -27 -136 -35q-88 -9 -161 38q-72 46 -110 123q-37 76 -30 154q8 69 44 124q38 57 97 93q61 37 131 41q69 4 142 -28q37 -16 82 -43q34 -21 72 -53z" />
    <glyph glyph-name="plusminus" unicode="&#xb1;" horiz-adv-x="1280" 
d="M1169 0h-1058v285h1058v-285zM784 378h-290v369h-383v289h383v377h290v-377h385v-289h-385v-369z" />
    <glyph glyph-name="lessequal" unicode="&#x2264;" horiz-adv-x="1280" 
d="M1183 0h-1087v293h1087v-293zM1183 682v-316l-1077 453v269l1077 455v-318l-702 -270z" />
    <glyph glyph-name="greaterequal" unicode="&#x2265;" horiz-adv-x="1280" 
d="M1179 0h-1078v293h1078v-293zM1179 823l-1078 -456v316l702 274l-702 270v316l1078 -452v-268z" />
    <glyph glyph-name="yen" unicode="&#xa5;" horiz-adv-x="2069" 
d="M1556 789l-448 788h929zM121 662h427l-517 915h923l520 -915h456v-117h-456v-132h456v-117h-456v-296h-896v296h-457v117h457v132h-457v117z" />
    <glyph glyph-name="mu" unicode="&#xb5;" horiz-adv-x="1366" 
d="M131 -401v1462h407v-533q0 -57 4 -84q5 -34 14 -52q11 -24 29 -42q43 -43 111 -43q152 0 152 232v522h407v-1061h-383v84h-4q-21 -43 -42 -63q-24 -22 -62 -35q-39 -11 -58 -11q-34 0 -70 16q-38 15 -63 38q-16 16 -31 47h-4v-477h-407z" />
    <glyph glyph-name="partialdiff" unicode="&#x2202;" horiz-adv-x="1012" 
d="M757 612q-56 65 -101 100q-43 32 -121 31q-116 -3 -196 -110q-43 -62 -62 -110q-22 -50 -31 -107q-10 -53 -10 -113q0 -73 18 -144q17 -71 77 -112q42 -27 84 -29q37 -1 86 19q104 45 165 190q35 86 58 187q21 98 33 198zM220 1366l-80 102q75 34 177 52t194 -4
q101 -24 189 -89q86 -65 155 -186q42 -73 64 -164q22 -89 28 -160q6 -70 6 -112q0 -11 -3.5 -65t-6.5 -78q-11 -100 -34 -205q-26 -114 -62 -189q-48 -102 -91 -160t-122 -102q-102 -55 -208 -48q-108 8 -192 65q-48 34 -80 71q-34 39 -60 96q-26 58 -32 129q-9 111 27 204
t86 155q60 72 128 110q71 38 163 35q90 -3 147 -31q61 -30 160 -108q17 96 22 238q3 67 -19 169q-21 99 -46 156q-25 60 -84 118q-60 57 -145 65q-56 5 -89 3q-34 -1 -57 -9q-32 -11 -64 -26l-47 -21t-24 -11z" />
    <glyph glyph-name="summation" unicode="&#x2211;" horiz-adv-x="1212" 
d="M10 0l576 670l-551 708h1061l20 -309h-39q-24 92 -75 154q-51 61 -183 61h-450l411 -528l-483 -563h600q74 0 119 16t83 66q37 49 66 145h41l-76 -420h-1120z" />
    <glyph glyph-name="product" unicode="&#x220f;" horiz-adv-x="1686" 
d="M1446 1288v-1282q0 -69 24 -105q22 -36 67 -48q42 -13 108 -13v-47h-627v47q100 0 148 33t48 133v1419h-733v-1419q0 -69 24 -105q22 -36 67 -48q42 -13 108 -13v-47h-629v47q102 0 151 33q48 33 48 133v1282q0 203 -195 203v47h1583v-47q-192 0 -192 -203z" />
    <glyph glyph-name="pi" unicode="&#x3c0;" horiz-adv-x="1124" 
d="M651 492l35 329h-231q-17 -202 -33 -329q-19 -145 -31 -221q-16 -100 -31 -169q-14 -61 -38 -92q-25 -34 -74 -47q-39 -10 -79 16q-40 25 -48 62q-6 27 -3 46q3 15 11 34q6 14 18 29l12 15l9 11l11 13l24 28q30 36 47 68q15 28 20 67l60 469h-97q-41 0 -78 -19
q-36 -19 -57 -46l-43 -64h-35q6 18 35 94q22 55 58 105q29 44 78 75t114 31h764v-176h-258q-25 -234 -25 -481q0 -44 15 -86t37 -64q29 -25 69 -33q41 -8 82 25q24 19 34 41q10 21 13 44q2 11 3.5 21.5t2.5 20.5h43q-2 -84 -25 -149q-23 -66 -57 -107q-33 -41 -65 -59
q-34 -21 -84 -26q-48 -5 -88 22q-66 48 -100 151q-19 60 -21 159q-3 98 6 192z" />
    <glyph glyph-name="integral" unicode="&#x222b;" horiz-adv-x="561" 
d="M395 999l-2 -442q0 -81 -4.5 -165.5t-13 -162.5t-21.5 -145t-31 -127q-20 -74 -59 -125q-16 -23 -75 -42q-59 -20 -105 1q-21 10 -41 36q-20 27 -27 44q-12 35 0 65t49 48q35 17 61 5q27 -13 56 -46q29 -30 49 -4q19 25 27 83q8 56 6 130q0 26 -1.5 67t-2.5 74
q0 22 -1.5 56.5t-2.5 63.5q-2 54 -3 163q-1 72 -1 219v295q0 61 1 102t1 90q1 94 8 182q4 70 16 139q10 59 27 121q11 36 38 76q28 42 54 58q26 17 57 18q30 2 59 -9q33 -12 44 -20q28 -17 41 -60q13 -42 -14 -77q-16 -19 -43 -29q-28 -12 -56 -9q-27 3 -47 24
q-23 23 -40 24q-19 1 -29 -11q-12 -15 -13 -34q-1 -22 2 -62q4 -50 7 -77t7 -96q12 -161 17 -243q6 -106 6 -198z" />
    <glyph glyph-name="ordfeminine" unicode="&#xaa;" horiz-adv-x="981" 
d="M442 1298v-456h-131q-115 0 -184 63q-70 63 -70 170q0 122 115 207q62 -47 129 -47q78 0 141 63zM530 842v745h70q119 0 194 -33q76 -35 110 -108q34 -74 34 -193v-411h-408zM295 1585h2q44 -1 78 -21q33 -20 52 -53q19 -34 19 -75q0 -62 -43 -105q-43 -45 -106 -45
q-60 0 -105 45t-45 105q0 40 20 75t54 54q35 20 74 20z" />
    <glyph glyph-name="ordmasculine" unicode="&#xba;" horiz-adv-x="1024" 
d="M569 829v756q83 -3 117 -10q38 -7 78 -27q77 -31 129 -84q104 -102 104 -258q0 -75 -28 -141q-29 -68 -81 -119q-52 -50 -124 -82q-33 -14 -74 -23q-38 -8 -121 -12zM481 1587v-758q-82 5 -116 12q-42 9 -76 23q-74 33 -125 84q-107 104 -107 262q0 115 63 206
q62 91 173 136q76 31 188 35z" />
    <glyph glyph-name="Omega" unicode="&#x2126;" horiz-adv-x="1573" 
d="M641 311l33 -311h-604v332h30q19 -78 46 -101q26 -24 90 -24h323l-4 57q-91 28 -145 54q-57 25 -107 68q-49 41 -90 101q-69 104 -90 213q-22 108 -4 212q16 99 61 180q54 97 107 140q55 46 127 87q69 40 170 66q101 24 204 24q106 0 206 -24q100 -25 169 -66
q70 -40 127 -86q55 -44 107 -141q44 -79 62 -180q9 -49 8 -101.5t-12 -110.5q-23 -111 -91 -213q-60 -86 -137 -135t-205 -88l-4 -57h323q66 0 92 25t44 100h30v-332h-604l33 311l27 12.5t29 12.5q32 15 61 35q30 22 64 66q32 42 61 108q38 86 48 216q10 127 -23 261
q-33 132 -118 215q-106 106 -297 106t-296 -106q-85 -83 -118 -215q-33 -130 -22 -261q11 -133 47 -216q29 -66 61 -108q30 -42 64 -66q30 -21 61 -36q26 -12 56 -24z" />
    <glyph glyph-name="ae" unicode="&#xe6;" horiz-adv-x="2241" 
d="M2191 592h-610v584q84 -3 135 -13q59 -11 113 -35q104 -42 184 -122q85 -85 133 -201q24 -55 34 -100q8 -44 11 -113zM1346 0h-521v1174q102 -2 178 -14q79 -13 160 -40q141 56 252 56l29 2v-1115q74 -6 100 -6q144 0 261 49q120 50 192 140q50 64 88 145q5 11 9 18
q2 6 3 8.5l6 14.5l58 -22q-141 -420 -633 -420q-53 0 -133 6q-24 4 -49 4zM465 1161q63 0 118 -31q54 -31 86 -85q31 -53 31 -119t-31 -119q-31 -55 -86 -87q-56 -32 -118 -32q-97 0 -166 70q-70 69 -70 168q0 61 32 117t86 87q55 31 118 31zM692 713v-713h-221
q-164 0 -270 103q-107 104 -107 259q0 62 19 113q18 52 56 104q38 51 99 105q98 -72 201 -72q124 0 223 101z" />
    <glyph glyph-name="oslash" unicode="&#xf8;" horiz-adv-x="1600" 
d="M1562 1089l-166 -130q131 -163 131 -374q0 -270 -185 -432q-186 -162 -450 -162h-26v551l-137 -107v-444h-32q-221 0 -384 118l-184 -145l-62 83l166 131q-74 67 -118 177q-43 110 -43 221q0 266 183 431q182 166 436 166h38v-605l137 107v498h26q260 0 431 -140l177 140
z" />
    <glyph glyph-name="questiondown" unicode="&#xbf;" horiz-adv-x="1194" 
d="M561 713v-682q0 -102 32 -169q31 -65 112 -134q-75 -37 -154 -37q-136 0 -248 70q-114 69 -180 190q-66 120 -66 264q0 80 22 149q22 74 61 130q40 60 95 106q53 44 123 74q47 20 85 27q39 8 118 12zM932 264q53 0 98 -19t80 -54q33 -33 53 -81q19 -45 19 -98
q0 -105 -73 -178q-74 -74 -177 -74q-104 0 -178 74t-74 178q0 106 75 179q73 73 177 73zM520 1270q100 0 171 -71t71 -171t-71 -171t-171 -71q-65 0 -121 33q-55 31 -87 88q-33 56 -33 121q0 101 70 171q71 71 171 71z" />
    <glyph glyph-name="exclamdown" unicode="&#xa1;" horiz-adv-x="555" 
d="M94 182l124 533h125l142 -561q43 -159 43 -224q0 -63 -32 -118q-33 -56 -88 -87q-56 -32 -120 -32q-68 0 -121 31q-54 31 -85 85q-31 53 -31 121t43 252zM281 1274q100 0 171 -71q70 -70 70 -171t-70 -171t-171 -70q-103 0 -173 70q-71 71 -71 171t71 171t173 71z" />
    <glyph glyph-name="logicalnot" unicode="&#xac;" horiz-adv-x="1280" 
d="M1170 407h-292v467h-767v291h1059v-758z" />
    <glyph glyph-name="radical" unicode="&#x221a;" horiz-adv-x="1124" 
d="M250 950l-197 -96l-33 68l299 147l404 -825l260 1634l72 -10l-307 -1946z" />
    <glyph glyph-name="florin" unicode="&#x192;" horiz-adv-x="1131" 
d="M220 907h-152l18 71h148l27 150q25 143 88 235q63 90 183 148q123 59 256 59q-85 -79 -85 -176q0 -77 54 -145q54 -67 149 -93l-34 -178h154l-13 -71h-155l-112 -614q-22 -127 -63 -240t-131 -199q-92 -88 -204 -128q-114 -42 -335 -42h-83q89 135 135 388zM950 1577
q75 0 131 -53q55 -52 55 -132q0 -77 -54 -131q-55 -55 -132 -55q-76 0 -130 55q-55 54 -55 131q0 76 55 131q54 54 130 54z" />
    <glyph glyph-name="approxequal" unicode="&#x2248;" horiz-adv-x="1280" 
d="M88 258v294q154 145 324 145q102 0 301 -89q129 -58 192 -58q130 0 287 150v-297q-163 -144 -310 -144q-56 0 -110 14q-38 11 -58.5 19.5t-103.5 46.5q-145 69 -227 69q-140 0 -295 -150zM88 741v294q154 145 324 145q104 0 301 -88q132 -59 192 -59q130 0 287 151v-298
q-164 -143 -310 -143q-56 0 -110 14q-57 15 -162 65q-145 69 -227 69q-140 0 -295 -150z" />
    <glyph glyph-name="Delta" unicode="&#x2206;" horiz-adv-x="1253" 
d="M991 100l-397 959l-447 -959h844zM12 0l656 1409l577 -1409h-1233z" />
    <glyph glyph-name="guillemotleft" unicode="&#xab;" horiz-adv-x="1536" 
d="M63 627l402 538h448l-397 -536l402 -531h-455zM680 629l399 538h451l-397 -536l405 -533h-455z" />
    <glyph glyph-name="guillemotright" unicode="&#xbb;" horiz-adv-x="1536" 
d="M457 637l-402 532h455l399 -532l-401 -539h-453zM1075 637l-403 534h452l400 -536l-400 -537h-452z" />
    <glyph glyph-name="ellipsis" unicode="&#x2026;" 
d="M1726 489q102 0 173 -71t71 -172q0 -99 -71 -172q-70 -72 -173 -72q-101 0 -172 72q-71 73 -71 172q0 101 71 172t172 71zM1044 489q102 0 173 -71t71 -172q0 -99 -71 -172q-70 -72 -173 -72q-101 0 -172 72q-71 73 -71 172q0 67 33 122q33 56 89 89q56 32 121 32z
M365 487q101 0 171 -70t70 -171t-70 -172q-70 -72 -171 -72q-102 0 -173 72q-71 73 -71 172q0 100 71 171q70 70 173 70z" />
    <glyph glyph-name="nonbreakingspace" unicode="&#xa0;" horiz-adv-x="1024" 
 />
    <glyph glyph-name="Agrave" unicode="&#xc0;" horiz-adv-x="1855" 
d="M1080 1665l-418 334h418v-334zM438 965l262 624h476l686 -1589h-1022l-285 684h-145l282 -684h-665l338 799h141z" />
    <glyph glyph-name="Atilde" unicode="&#xc3;" horiz-adv-x="1855" 
d="M438 965l262 624h476l686 -1589h-1022l-285 684h-145l282 -684h-665l338 799h141zM977 1667v332h410v-19q0 -61 -23 -127q-23 -63 -63 -104q-45 -42 -113 -62q-69 -20 -174 -20h-37zM895 1667h-405v23q0 151 94 230q92 79 270 79h41v-332z" />
    <glyph glyph-name="Otilde" unicode="&#xd5;" 
d="M1118 -8v1595h80q171 0 322 -60q154 -63 265 -169q112 -108 175 -253t63 -312q0 -170 -61 -314q-63 -149 -173 -257q-113 -112 -263 -170q-150 -60 -322 -60h-86zM983 1587v-1595h-121q-213 0 -392 108q-179 106 -285 292q-105 185 -105 399q0 169 62 317q63 149 173 254
q114 108 267 166q156 59 331 59h70zM1073 1667v332h410v-19q0 -61 -23 -127q-23 -63 -63 -104q-45 -42 -113 -62q-69 -20 -174 -20h-37zM991 1667h-405v23q0 151 94 230q92 79 270 79h41v-332z" />
    <glyph glyph-name="OE" unicode="&#x152;" horiz-adv-x="2410" 
d="M858 76l-10 -76h-51q-160 0 -294 57t-231 163q-99 108 -151 255q-53 150 -53 320t52 313q51 144 149 251t231 162q135 56 288 56h70v-1501zM2232 539l-458 252v-750zM995 0v1577h1368v-588l-131 125v-569l133 137v-682h-1370zM2228 1116l-454 426v-723z" />
    <glyph glyph-name="oe" unicode="&#x153;" horiz-adv-x="2304" 
d="M887 -10v1181h39q145 0 274 -75q134 74 273 78h36v-1106q80 -11 131 -11q126 0 231 43q106 44 183 128q77 85 119 200l55 -22q-34 -94 -58 -134q-24 -42 -73 -96q-84 -93 -205 -138q-120 -46 -284 -46q-117 0 -210 24q-92 24 -196 78q-72 -46 -141 -68q-70 -24 -174 -36z
M754 1171v-1181h-29q-173 0 -318 77q-144 76 -227 210q-82 133 -82 296q0 126 46 236q47 111 130 191q84 81 199 126q114 45 244 45h37zM1647 590v584h34q86 0 165.5 -25t149.5 -73q145 -99 214 -259q23 -49 33 -96q9 -41 14 -131h-610z" />
    <glyph glyph-name="endash" unicode="&#x2013;" horiz-adv-x="1024" 
d="M4 254v680h1043v-680h-1043z" />
    <glyph glyph-name="emdash" unicode="&#x2014;" 
d="M2 254v680h2069v-680h-2069z" />
    <glyph glyph-name="quotedblleft" unicode="&#x201c;" horiz-adv-x="1194" 
d="M940 1599v-235q104 -16 165 -81q60 -66 60 -161q0 -101 -71 -172t-174 -71q-106 0 -177 78q-71 79 -71 192q0 97 35 190q34 88 98 160q52 54 135 100zM346 1599v-235q105 -18 166 -82t61 -160q0 -101 -72 -172q-73 -71 -175 -71q-104 0 -175 78q-71 79 -71 192
q0 99 36 193q35 93 101 163q44 47 129 94z" />
    <glyph glyph-name="quotedblright" unicode="&#x201d;" horiz-adv-x="1194" 
d="M891 877v233q-101 18 -160 83t-59 157q0 65 32 121q32 57 86 89q56 33 119 33q72 0 129 -33q58 -35 89 -94q32 -61 32 -139q0 -215 -135 -356q-25 -28 -54 -48q-24 -18 -79 -46zM299 877v233q-96 10 -158 79q-63 68 -63 161q0 67 32 123q32 57 89 88q56 32 120 32
q68 0 126 -34t90 -97q32 -62 32 -137q0 -66 -15 -129q-16 -63 -45 -119q-27 -53 -73 -102q-36 -36 -57 -52q-25 -20 -78 -46z" />
    <glyph glyph-name="quoteleft" unicode="&#x2018;" horiz-adv-x="598" 
d="M342 1599v-235q103 -18 164 -82t61 -160q0 -102 -71 -173q-72 -72 -172 -72q-107 0 -178 78q-72 78 -72 192q0 98 35 191q33 89 98 161q50 54 135 100z" />
    <glyph glyph-name="quoteright" unicode="&#x2019;" horiz-adv-x="598" 
d="M293 877v233q-96 12 -158 80q-61 67 -61 160q0 69 32 125q32 55 87 86q56 32 120 32q109 0 179 -75q69 -75 69 -195q0 -217 -143 -360q-24 -27 -51 -46q-22 -16 -74 -40z" />
    <glyph glyph-name="divide" unicode="&#xf7;" horiz-adv-x="1280" 
d="M810 200h-341v327h341v-327zM1169 636h-1058v295h1058v-295zM810 1039h-341v325h341v-325z" />
    <glyph glyph-name="lozenge" unicode="&#x25ca;" horiz-adv-x="1012" 
d="M496 111l335 661l-335 643l-336 -643zM954 772l-397 -772h-123l-397 772l397 754h123z" />
    <glyph glyph-name="ydieresis" unicode="&#xff;" horiz-adv-x="1772" 
d="M633 80q56 0 102 -27q45 -28 74 -75q27 -47 27 -103q0 -57 -27 -103q-28 -46 -75 -73q-46 -27 -101 -27t-102 27q-48 27 -75 73q-28 46 -28 103t28 103q27 46 74 75q47 27 103 27zM590 160l-543 997h688l510 -924q-34 -70 -73.5 -143t-67.5 -113q-39 -55 -70 -92
q-28 -33 -61 -64q-23 -22 -84 -67q26 66 26 119q0 77 -38 144q-37 64 -103 106q-64 39 -141 39q-17 0 -43 -2zM1327 362l-438 795h895zM1131 1575h6q91 -3 149 -49t58 -117q0 -50 -25 -87q-26 -38 -73 -59q-47 -22 -111 -22q-87 0 -146 48t-59 120q0 71 58 119q58 47 143 47
zM647 1575h4q95 -3 151 -47q56 -45 56 -119q0 -73 -59 -120q-60 -48 -148 -48q-84 0 -145 49t-61 119q0 74 57 120q55 46 145 46z" />
    <glyph glyph-name="Ydieresis" unicode="&#x178;" 
d="M586 608l-549 969h928l522 -915v-662h-901v608zM1571 788l-451 789h934zM1270 2001h6q91 -3 149 -49t58 -117q0 -50 -25 -87q-26 -38 -73 -59q-47 -22 -111 -22q-87 0 -146 48t-59 120q0 71 58 119q58 47 143 47zM786 2001h4q95 -3 151 -47q56 -45 56 -119
q0 -73 -59 -120q-60 -48 -148 -48q-84 0 -145 49t-61 119q0 74 57 120q55 46 145 46z" />
    <glyph glyph-name="fraction" unicode="&#x2215;" horiz-adv-x="342" 
d="M-369 -25l951 1411h114l-950 -1411h-115z" />
    <glyph glyph-name="currency" unicode="&#xa4;" horiz-adv-x="1237" 
d="M619 981q-78 0 -137 -56q-59 -57 -59 -141q0 -81 58 -138q57 -58 138 -58q82 0 140 58q57 57 57 138q0 84 -58 141q-59 56 -139 56zM267 238l-193 190l136 136q-56 101 -56 217q0 117 54 220l-136 137l186 193l141 -139q110 57 220 57q111 0 220 -57l138 139l189 -190
l-137 -138q54 -106 54 -217t-54 -222l137 -136l-189 -192l-138 139q-109 -55 -222 -55q-105 0 -216 55z" />
    <glyph glyph-name="guilsinglleft" unicode="&#x2039;" horiz-adv-x="918" 
d="M61 629l400 538h450l-399 -534l408 -535h-457z" />
    <glyph glyph-name="guilsinglright" unicode="&#x203a;" horiz-adv-x="918" 
d="M455 637l-400 534h451l399 -534l-399 -537h-451z" />
    <glyph glyph-name="fi" unicode="&#xf001;" horiz-adv-x="1749" 
d="M20 1085v78h154q20 100 55 160q35 62 97 115q85 75 228 113q140 36 337 36h82h10q-75 -50 -113 -94q-33 -40 -51 -90q-26 -75 -26 -203v-37h852v-1165h-629v1089h-223v-1089h-625v1087h-148zM1329 1247q-141 0 -227 47t-86 123q0 49 38 90q37 39 106 60q69 20 157 20
q141 0 232 -48t91 -122q0 -75 -86 -122q-87 -48 -225 -48z" />
    <glyph glyph-name="fl" unicode="&#xf002;" horiz-adv-x="1729" 
d="M20 1085v74h150q23 102 55 156q44 74 105 125q59 50 125 79q71 32 152 48q80 16 169 16q83 0 127 -10q-40 -37 -66 -80q-27 -45 -37 -94q-10 -52 -12 -123v-115h224v412h626v-1575h-626v1087h-224v-1087h-622l2 1087h-148z" />
    <glyph glyph-name="daggerdbl" unicode="&#x2021;" horiz-adv-x="1387" 
d="M1011 1579v-363h353v-159h-353v-832h353v-159h-353v-364h-634v364h-354v159h354v832h-354v159h354v363h634z" />
    <glyph glyph-name="periodcentered" unicode="&#x2219;" horiz-adv-x="598" 
d="M309 1036h4q68 -1 126 -33q58 -33 90 -89q32 -58 32 -121q0 -102 -72 -174t-176 -72q-101 0 -174 73t-73 173q0 101 71 172t172 71z" />
    <glyph glyph-name="quotesinglbase" unicode="&#x201a;" horiz-adv-x="598" 
d="M295 -227v229q-105 9 -166 76q-63 66 -63 166q0 101 73 171q71 70 174 70q69 0 126 -33q58 -36 88 -95q32 -62 32 -132q0 -110 -41 -215q-41 -104 -112 -172q-44 -40 -111 -65z" />
    <glyph glyph-name="quotedblbase" unicode="&#x201e;" horiz-adv-x="1194" 
d="M893 -229v229q-106 12 -167 79q-62 67 -62 165q0 102 72 172q71 69 175 69q69 0 126 -33q57 -36 88 -94q32 -62 32 -131q0 -233 -151 -385q-23 -23 -47 -39q-26 -16 -66 -32zM301 -229l-2 229q-106 12 -167 79q-62 67 -62 165q0 101 72 171q70 70 173 70q70 0 126 -34
q58 -35 90 -92q32 -59 32 -128q0 -113 -38 -213q-37 -98 -107 -170q-20 -22 -47 -39q-26 -17 -70 -38z" />
    <glyph glyph-name="perthousand" unicode="&#x2030;" horiz-adv-x="3092" 
d="M1474 778h41v-798h-49q-152 0 -242 110t-90 278q0 180 86 296q86 114 254 114zM1611 -20v798h41q113 0 190 -53q75 -53 113 -147q37 -92 37 -210q0 -114 -35 -202q-34 -85 -109 -136q-76 -50 -188 -50h-49zM434 1586h41v-798h-49q-152 0 -242 110t-90 278q0 180 86 296
q86 114 254 114zM571 788v798h41q113 0 190 -53q75 -53 113 -147q37 -92 37 -210q0 -114 -35 -202q-34 -85 -109 -136q-76 -50 -188 -50h-49zM2438 774h41v-798h-49q-152 0 -242 110t-90 278q0 180 86 296q86 114 254 114zM2575 -24v798h41q113 0 190 -53q75 -53 113 -147
q37 -92 37 -210q0 -114 -35 -202q-34 -85 -109 -136q-76 -50 -188 -50h-49zM537 -12l873 1607h145l-872 -1607h-146z" />
    <glyph glyph-name="Acircumflex" unicode="&#xc2;" horiz-adv-x="1855" 
d="M438 965l262 624h476l686 -1589h-1022l-285 684h-145l282 -684h-665l338 799h141zM486 1667l200 221l209 -221h-409zM742 1952l51 55h282l312 -340h-383z" />
    <glyph glyph-name="Ecircumflex" unicode="&#xca;" horiz-adv-x="1878" 
d="M139 0v1577h1655v-594l-158 119v-588l162 131v-645h-1659zM1632 510l-585 268v-745zM1630 1108l-579 434v-745zM496 1667l200 221l209 -221h-409zM752 1952l51 55h282l312 -340h-383z" />
    <glyph glyph-name="Aacute" unicode="&#xc1;" horiz-adv-x="1855" 
d="M438 965l262 624h476l686 -1589h-1022l-285 684h-145l282 -684h-665l338 799h141zM795 1663v328h418z" />
    <glyph glyph-name="Edieresis" unicode="&#xcb;" horiz-adv-x="1878" 
d="M139 0v1577h1655v-594l-158 119v-588l162 131v-645h-1659zM1632 510l-585 268v-745zM1630 1108l-579 434v-745zM1184 2001h6q91 -3 149 -49t58 -117q0 -50 -25 -87q-26 -38 -73 -59q-47 -22 -111 -22q-87 0 -146 48t-59 120q0 71 58 119q58 47 143 47zM700 2001h4
q95 -3 151 -47q56 -45 56 -119q0 -73 -59 -120q-60 -48 -148 -48q-84 0 -145 49t-61 119q0 74 57 120q55 46 145 46z" />
    <glyph glyph-name="Egrave" unicode="&#xc8;" horiz-adv-x="1878" 
d="M139 0v1577h1655v-594l-158 119v-588l162 131v-645h-1659zM1632 510l-585 268v-745zM1630 1108l-579 434v-745zM1090 1665l-418 334h418v-334z" />
    <glyph glyph-name="Iacute" unicode="&#xcd;" horiz-adv-x="1130" 
d="M139 1577h899v-1577h-899v1577zM432 1663v328h418z" />
    <glyph glyph-name="Icircumflex" unicode="&#xce;" horiz-adv-x="1130" 
d="M139 1577h899v-1577h-899v1577zM123 1667l200 221l209 -221h-409zM379 1952l51 55h282l312 -340h-383z" />
    <glyph glyph-name="Idieresis" unicode="&#xcf;" horiz-adv-x="1130" 
d="M139 1577h899v-1577h-899v1577zM811 2001h6q91 -3 149 -49t58 -117q0 -50 -25 -87q-26 -38 -73 -59q-47 -22 -111 -22q-87 0 -146 48t-59 120q0 71 58 119q58 47 143 47zM327 2001h4q95 -3 151 -47q56 -45 56 -119q0 -73 -59 -120q-60 -48 -148 -48q-84 0 -145 49
t-61 119q0 74 57 120q55 46 145 46z" />
    <glyph glyph-name="Igrave" unicode="&#xcc;" horiz-adv-x="1130" 
d="M139 1577h899v-1577h-899v1577zM717 1665l-418 334h418v-334z" />
    <glyph glyph-name="Oacute" unicode="&#xd3;" 
d="M1118 -8v1595h80q171 0 322 -60q154 -63 265 -169q112 -108 175 -253t63 -312q0 -170 -61 -314q-63 -149 -173 -257q-113 -112 -263 -170q-150 -60 -322 -60h-86zM983 1587v-1595h-121q-213 0 -392 108q-179 106 -285 292q-105 185 -105 399q0 169 62 317q63 149 173 254
q114 108 267 166q156 59 331 59h70zM891 1663v328h418z" />
    <glyph glyph-name="Ocircumflex" unicode="&#xd4;" 
d="M1118 -8v1595h80q171 0 322 -60q154 -63 265 -169q112 -108 175 -253t63 -312q0 -170 -61 -314q-63 -149 -173 -257q-113 -112 -263 -170q-150 -60 -322 -60h-86zM983 1587v-1595h-121q-213 0 -392 108q-179 106 -285 292q-105 185 -105 399q0 169 62 317q63 149 173 254
q114 108 267 166q156 59 331 59h70zM582 1667l200 221l209 -221h-409zM838 1952l51 55h282l312 -340h-383z" />
    <glyph glyph-name="apple" unicode="&#xf000;" horiz-adv-x="1618" 
d="M1170 1655q1 -21 1 -67q0 -32 -5 -60q-8 -40 -26 -76q-20 -42 -44 -63q-59 -59 -139 -109q-13 -9 -115 -18q-7 61 11 104q39 99 71 141q35 43 61 65q33 26 50 34q81 40 135 49zM849 61q-51 0 -142 -41q-72 -35 -145 -22q-77 14 -129 61q-77 71 -119 136q-47 70 -104 192
q-43 98 -69 237q-27 139 -9 236q42 225 176 328q75 59 181 75q107 17 177 -3q17 -5 77 -30q63 -26 106 -26q44 0 105 26q59 25 77 30q75 18 181 2q107 -17 179 -74q27 -19 78 -78q-51 -37 -69 -54q-13 -11 -35 -37q-16 -19 -33 -48q-56 -92 -53 -205q2 -55 20 -107
q21 -60 47 -94q31 -42 59 -66q27 -22 66 -42q40 -20 41 -21q-54 -115 -84 -171q-31 -57 -63 -101q-36 -47 -76 -84l-21 -19t-19 -18q-18 -18 -42 -28q-28 -11 -70 -17q-69 -13 -147 22q-88 41 -141 41z" />
    <glyph glyph-name="Ograve" unicode="&#xd2;" 
d="M1118 -8v1595h80q171 0 322 -60q154 -63 265 -169q112 -108 175 -253t63 -312q0 -170 -61 -314q-63 -149 -173 -257q-113 -112 -263 -170q-150 -60 -322 -60h-86zM983 1587v-1595h-121q-213 0 -392 108q-179 106 -285 292q-105 185 -105 399q0 169 62 317q63 149 173 254
q114 108 267 166q156 59 331 59h70zM1176 1665l-418 334h418v-334z" />
    <glyph glyph-name="Uacute" unicode="&#xda;" horiz-adv-x="1749" 
d="M133 635v942h905v-1536q89 8 135 18q49 11 99 35q92 40 162 113q149 155 149 399v365l-467 606h529v-977q0 -273 -172 -442q-68 -65 -145 -105q-75 -39 -175 -59q-95 -19 -223 -19q-150 0 -261 19q-116 18 -197 58q-84 40 -148 102q-90 86 -140 214q-51 128 -51 267z
M794 1663v328h418z" />
    <glyph glyph-name="Ucircumflex" unicode="&#xdb;" horiz-adv-x="1749" 
d="M133 635v942h905v-1536q89 8 135 18q49 11 99 35q92 40 162 113q149 155 149 399v365l-467 606h529v-977q0 -273 -172 -442q-68 -65 -145 -105q-75 -39 -175 -59q-95 -19 -223 -19q-150 0 -261 19q-116 18 -197 58q-84 40 -148 102q-90 86 -140 214q-51 128 -51 267z
M433 1667l200 221l209 -221h-409zM689 1952l51 55h282l312 -340h-383z" />
    <glyph glyph-name="Ugrave" unicode="&#xd9;" horiz-adv-x="1749" 
d="M133 635v942h905v-1536q89 8 135 18q49 11 99 35q92 40 162 113q149 155 149 399v365l-467 606h529v-977q0 -273 -172 -442q-68 -65 -145 -105q-75 -39 -175 -59q-95 -19 -223 -19q-150 0 -261 19q-116 18 -197 58q-84 40 -148 102q-90 86 -140 214q-51 128 -51 267z
M1027 1665l-418 334h418v-334z" />
    <glyph glyph-name="dotlessi" unicode="&#x131;" horiz-adv-x="874" 
d="M141 0v1157h633v-1157h-633z" />
    <glyph glyph-name="circumflex" unicode="&#x2c6;" horiz-adv-x="682" 
d="M-102 1241l200 221l209 -221h-409zM154 1526l51 55h282l312 -340h-383z" />
    <glyph glyph-name="tilde" unicode="&#x2dc;" horiz-adv-x="682" 
d="M389 1241v332h410v-19q0 -61 -23 -127q-23 -63 -63 -104q-45 -42 -113 -62q-69 -20 -174 -20h-37zM307 1241h-405v23q0 151 94 230q92 79 270 79h41v-332z" />
    <glyph glyph-name="macron" unicode="&#x2c9;" horiz-adv-x="682" 
d="M-440 1241v332h897v-332h-897z" />
    <glyph glyph-name="breve" unicode="&#x2d8;" horiz-adv-x="682" 
d="M-98 1536v41h403v-338h-74q-98 0 -172 38q-76 38 -116 105q-41 68 -41 154zM393 1241v336h410v-23q0 -87 -37 -158q-37 -73 -104 -114q-68 -41 -146 -41h-123z" />
    <glyph glyph-name="dotaccent" unicode="&#x2d9;" horiz-adv-x="682" 
d="M354 1575h4q95 -3 150 -49t55 -123q0 -69 -56 -114q-55 -46 -142 -46q-94 0 -156 47t-62 117q0 73 58 121q59 47 149 47z" />
    <glyph glyph-name="ring" unicode="&#x2da;" horiz-adv-x="682" 
d="M348 1530q-109 0 -166 -28q-59 -29 -59 -81q0 -104 219 -104q122 0 176 25q55 24 55 77q0 57 -55 84t-170 27zM354 1595q143 0 214 -43q71 -44 71 -131q0 -84 -71 -128q-73 -44 -208 -44q-148 0 -226 45q-79 45 -79 129q0 85 77 129q76 43 222 43z" />
    <glyph glyph-name="cedilla" unicode="&#xb8;" horiz-adv-x="682" 
d="M25 -385l219 186v-186h-219zM322 -387v401q45 6 67 6q97 0 161 -55t64 -139q0 -98 -76 -153q-76 -56 -216 -60z" />
    <glyph glyph-name="hungarumlaut" unicode="&#x2dd;" horiz-adv-x="682" 
d="M745 1237v328h418zM207 1237v328h418z" />
    <glyph glyph-name="ogonek" unicode="&#x2db;" horiz-adv-x="682" 
d="M20 14v-401q-93 3 -160 29t-100.5 73t-33.5 111q0 82 65 138t160 56q24 0 69 -6zM96 -199l221 -186h-221v186z" />
    <glyph glyph-name="caron" unicode="&#x2c7;" horiz-adv-x="682" 
d="M395 1579h408l-203 -217zM-98 1579h374l271 -281l-58 -59h-278z" />
    <glyph glyph-name="Scaron" unicode="&#x160;" horiz-adv-x="1729" 
d="M651 1567l846 -693q120 -96 172 -189q53 -95 53 -212q0 -144 -80 -260q-79 -116 -217 -172q-38 -16 -65 -22q-38 -9 -76 -13q-43 -4 -104 -6l-230 161l-161 116q-151 111 -292 231q-138 114 -219 203q-80 85 -114 149q-27 53 -42 116q-16 63 -16 118q0 152 78 264
q78 113 219 170q55 21 109 30q53 8 139 9zM115 0v659l841 -659h-841zM1630 938l-778 639h778v-639zM919 2005h408l-203 -217zM426 2005h374l271 -281l-58 -59h-278z" />
    <glyph glyph-name="scaron" unicode="&#x161;" horiz-adv-x="1217" 
d="M285 340q47 0 89 -24q41 -24 65 -65q24 -42 24 -89q0 -49 -23 -90q-24 -42 -66 -66t-89 -24q-49 0 -91 24q-43 24 -66 66q-24 41 -24 90q0 47 24 89q24 41 66 65t91 24zM608 281l-219 79q-149 53 -230 158q-83 107 -83 240q0 115 61 212q60 98 163 153t228 55q21 0 39 -2
q-33 -43 -40 -60q-9 -21 -9 -49q0 -116 199 -197l141 -55q114 -47 189 -109q75 -63 114 -142t39 -173q0 -109 -51 -199q-52 -90 -141 -143q-91 -53 -197 -53q-44 0 -109 6q56 62 56 119q0 105 -150 160zM958 1194q49 0 91 -24t66 -66t24 -90q0 -47 -23 -88q-24 -41 -66 -65
q-43 -25 -92 -25q-73 0 -125 52q-53 53 -53 126q0 74 53 127t125 53zM663 1579h408l-203 -217zM170 1579h374l271 -281l-58 -59h-278z" />
    <glyph glyph-name="brokenbar" unicode="&#xa6;" horiz-adv-x="657" 
d="M171 537h330v-851h-330v851zM171 1579h330v-868h-330v868z" />
    <glyph glyph-name="Eth" unicode="&#xd0;" horiz-adv-x="2112" 
d="M1179 0v731h-133v-731h-899v731h-119v115h119v731h899v-731h133v731h111q323 0 563 -235q239 -234 239 -553q0 -231 -128 -425q-68 -100 -144.5 -167.5t-168.5 -110.5q-182 -86 -340 -86h-132z" />
    <glyph glyph-name="eth" unicode="&#xf0;" horiz-adv-x="1600" 
d="M750 1026v-1026q-317 9 -473 149q-158 140 -158 354q0 127 63 242q64 114 207 196q74 41 164 62.5t197 22.5zM1115 1427l277 96l34 -99l-213 -74q145 -124 217.5 -274.5t72.5 -330.5q0 -286 -173 -506q-88 -110 -198 -169.5t-245 -69.5v1237l-216 -76l-34 99l247 86
q-10 104 -70 211q142 -31 301 -130z" />
    <glyph glyph-name="Yacute" unicode="&#xdd;" 
d="M586 608l-549 969h928l522 -915v-662h-901v608zM1571 788l-451 789h934zM918 1663v328h418z" />
    <glyph glyph-name="yacute" unicode="&#xfd;" horiz-adv-x="1772" 
d="M633 80q56 0 102 -27q45 -28 74 -75q27 -47 27 -103q0 -57 -27 -103q-28 -46 -75 -73q-46 -27 -101 -27t-102 27q-48 27 -75 73q-28 46 -28 103t28 103q27 46 74 75q47 27 103 27zM590 160l-543 997h688l510 -924q-34 -70 -73.5 -143t-67.5 -113q-39 -55 -70 -92
q-28 -33 -61 -64q-23 -22 -84 -67q26 66 26 119q0 77 -38 144q-37 64 -103 106q-64 39 -141 39q-17 0 -43 -2zM1327 362l-438 795h895zM752 1237v328h418z" />
    <glyph glyph-name="Thorn" unicode="&#xde;" horiz-adv-x="2091" 
d="M145 0v1577h902v-1577h-902zM1180 236v1105h276q134 0 249 -41q114 -40 197 -116q82 -74 127 -177q44 -105 44 -225q0 -115 -43 -214q-44 -101 -124 -175q-80 -75 -187 -116q-108 -41 -228 -41h-311z" />
    <glyph glyph-name="thorn" unicode="&#xfe;" horiz-adv-x="1599" 
d="M137 -315v1882h629v-1882h-629zM901 -6v1163h37q171 0 316 -77q144 -76 227 -211q82 -133 82 -296q0 -128 -43 -233q-43 -106 -123 -184q-80 -79 -192 -121q-110 -43 -242 -43q-5 1 -13 1t-15 1h-34z" />
    <glyph glyph-name="multiply" unicode="&#xd7;" horiz-adv-x="1280" 
d="M330 269l-207 207l308 309l-308 309l208 209l309 -310l310 310l206 -207l-310 -309l311 -311l-207 -208l-312 311z" />
    <glyph glyph-name="onesuperior" unicode="&#xb9;" horiz-adv-x="1087" 
d="M332 793v776h450v-776h-450z" />
    <glyph glyph-name="twosuperior" unicode="&#xb2;" horiz-adv-x="1087" 
d="M717 793l266 321v-321h-266zM600 793h-514l352 430q84 101 84 184q0 94 -78 164q62 8 129 8q138 0 234 -47q93 -46 139 -139q24 -49 37 -138zM256 1571q47 0 85 -22q38 -23 61 -61q22 -38 22 -85q0 -69 -49 -118q-50 -50 -119 -50q-70 0 -119 49t-49 119q0 69 50 119
q49 49 118 49z" />
    <glyph glyph-name="threesuperior" unicode="&#xb3;" horiz-adv-x="1087" 
d="M422 1178v10q178 49 178 192q0 126 -145 187q10 1 22 2.5t16 1.5q5 1 12.5 1.5t10.5 0.5q70 8 152 8q189 0 272 -55q84 -55 84 -176q0 -95 -106 -164q112 -64 112 -176q0 -83 -35 -133q-34 -49 -113 -72q-80 -23 -206 -23q-68 0 -221 6l-29 3v8q86 13 136 63
q48 50 48 123q0 80 -49 132q-49 50 -139 61zM242 1561q47 0 85 -22q38 -23 61 -61q22 -38 22 -85q0 -71 -48 -118q-49 -48 -120 -48q-69 0 -117 49q-49 48 -49 117t49 118q50 50 117 50zM242 1130q70 0 120 -47q48 -48 48 -118q0 -47 -22 -84q-23 -38 -61 -61
q-40 -23 -85 -23q-67 0 -117 50q-49 49 -49 118q0 68 49 117q48 48 117 48z" />
    <glyph glyph-name="onehalf" unicode="&#xbd;" horiz-adv-x="2520" 
d="M2069 4l266 321v-321h-266zM1952 4h-514l352 430q84 101 84 184q0 94 -78 164q62 8 129 8q138 0 234 -47q93 -46 139 -139q24 -49 37 -138zM1608 782q47 0 85 -22q38 -23 61 -61q22 -38 22 -85q0 -69 -49 -118q-50 -50 -119 -50q-70 0 -119 49t-49 119q0 69 50 119
q49 49 118 49zM836 5l360 1567h336l-368 -1567h-328zM285 796v776h450v-776h-450z" />
    <glyph glyph-name="threequarters" unicode="&#xbe;" horiz-adv-x="2520" 
d="M426 1175v10q178 49 178 192q0 126 -145 187q10 1 22 2.5t16 1.5q5 1 12.5 1.5t10.5 0.5q70 8 152 8q189 0 272 -55q84 -55 84 -176q0 -95 -106 -164q112 -64 112 -176q0 -83 -35 -133q-34 -49 -113 -72q-80 -23 -206 -23q-68 0 -221 6l-29 3v8q86 13 136 63
q48 50 48 123q0 80 -49 132q-49 50 -139 61zM246 1558q47 0 85 -22q38 -23 61 -61q22 -38 22 -85q0 -71 -48 -118q-49 -48 -120 -48q-69 0 -117 49q-49 48 -49 117t49 118q50 50 117 50zM246 1127q70 0 120 -47q48 -48 48 -118q0 -47 -22 -84q-23 -38 -61 -61
q-40 -23 -85 -23q-67 0 -117 50q-49 49 -49 118q0 68 49 117q48 48 117 48zM937 2l360 1567h336l-368 -1567h-328zM1829 645l170 150h285v-284h150v-378h-148v-130h-457v642zM1402 267l360 319v-452h-360v133z" />
    <glyph glyph-name="sfthyphen" unicode="&#xad;" horiz-adv-x="1130" 
d="M45 834h1085q-56 -63 -82 -126t-26 -135q0 -63 26 -121q26 -60 80 -118h-1083q55 58 79 118q23 60 23 140q0 130 -102 242z" />
    <glyph glyph-name="onequarter" unicode="&#xbc;" horiz-adv-x="2520" 
d="M1734 586v-452h-360v133zM1971 795h285v-284h150v-378h-148v-130h-457v642zM292 1572h450v-776h-450v776zM1221 1572h336l-368 -1567h-328z" />
    </font>
</defs>
</svg>
